<svg width="24" height="24" viewBox="0 0 24 24" fill="none" xmlns="http://www.w3.org/2000/svg">
<g clip-path="url(#clip0_6028_4551)">
<path d="M12 24C18.6274 24 24 18.6274 24 12C24 5.37258 18.6274 0 12 0C5.37258 0 0 5.37258 0 12C0 18.6274 5.37258 24 12 24Z" fill="url(#paint0_linear_6028_4551)"/>
<g clip-path="url(#clip1_6028_4551)">
<path fill-rule="evenodd" clip-rule="evenodd" d="M13.6489 14.6913C13.9542 14.9713 13.9748 15.4457 13.6949 15.751L10.027 19.7515C10.0269 19.7517 10.0267 19.7518 10.0266 19.7519C9.88695 19.9045 9.70974 20.0178 9.51266 20.0805C9.31541 20.1434 9.10513 20.1533 8.9028 20.1095C8.70047 20.0657 8.51318 19.9695 8.35962 19.8307C8.20611 19.6919 8.09167 19.5153 8.02771 19.3185C8.02769 19.3184 8.02767 19.3183 8.02765 19.3183L7.20492 16.7876C7.07685 16.3937 7.29237 15.9706 7.68629 15.8425C8.08021 15.7144 8.50336 15.93 8.63142 16.3239L9.28668 18.3394L12.5893 14.7373C12.8692 14.432 13.3436 14.4114 13.6489 14.6913ZM9.45422 18.8547L9.45416 18.8545L9.45422 18.8547Z" fill="white"/>
<path fill-rule="evenodd" clip-rule="evenodd" d="M5.1655 13.0109C5.76615 12.1343 6.76097 11.5039 8.21886 11.5039C8.93783 11.5039 9.57366 11.7982 10.1176 12.1465C10.5805 12.4429 11.0419 12.8232 11.4739 13.1793C11.5444 13.2373 11.614 13.2948 11.6828 13.3511C12.2446 13.8111 12.7676 14.2113 13.2948 14.4836C13.3151 14.4928 13.3349 14.5028 13.3541 14.5137C13.7906 14.7309 14.231 14.8588 14.6997 14.8588C15.7922 14.8588 16.3754 14.3872 16.7079 13.942C16.8829 13.7076 16.9946 13.4699 17.0619 13.2901C17.0953 13.2011 17.1167 13.1291 17.1291 13.0828C17.1353 13.0597 17.1392 13.0433 17.1412 13.0346C17.1418 13.0318 17.1423 13.0298 17.1425 13.0287L17.1426 13.0283C17.2217 12.6242 17.6123 12.3591 18.0177 12.4356C18.4247 12.5124 18.6924 12.9046 18.6156 13.3116L17.8786 13.1726C18.6156 13.3116 18.6155 13.312 18.6154 13.3124L18.6152 13.3133L18.6149 13.3152L18.614 13.3197C18.6134 13.323 18.6126 13.3269 18.6116 13.3314C18.6098 13.3403 18.6074 13.3517 18.6043 13.3652C18.5982 13.3922 18.5896 13.4281 18.5779 13.4717C18.5545 13.5586 18.5188 13.677 18.4666 13.8164C18.3628 14.0934 18.1896 14.4647 17.9097 14.8395C17.3326 15.6123 16.3263 16.3588 14.6997 16.3588C14.0107 16.3588 13.3833 16.1824 12.8136 15.9173H9.793C9.45527 16.2592 9.00234 16.6753 8.53193 17.0362C8.23784 17.2619 7.92053 17.4786 7.60812 17.6423C7.31405 17.7964 6.94137 17.9485 6.55895 17.9485C6.01984 17.9485 5.45407 17.7902 5.0262 17.3508C4.59973 16.9128 4.41406 16.3021 4.41406 15.6088C4.41406 14.8488 4.59283 13.8467 5.1655 13.0109ZM10.6175 14.4173C10.5812 14.3874 10.5452 14.3578 10.5097 14.3286C10.0718 13.9682 9.68947 13.6535 9.3087 13.4097C8.87035 13.129 8.52393 13.0039 8.21886 13.0039C7.25737 13.0039 6.7248 13.3889 6.40289 13.8587C6.05301 14.3694 5.91406 15.0447 5.91406 15.6088C5.91406 16.0459 6.02854 16.23 6.10087 16.3043C6.17179 16.3771 6.30347 16.4485 6.55895 16.4485C6.55879 16.4485 6.55884 16.4485 6.55908 16.4485C6.56192 16.4483 6.59214 16.4463 6.65577 16.4257C6.72262 16.4042 6.80816 16.368 6.91197 16.3136C7.12105 16.2041 7.36331 16.0422 7.61887 15.8461C8.12977 15.4542 8.62833 14.9764 8.92171 14.6586C9.06369 14.5048 9.26348 14.4173 9.47279 14.4173H10.6175ZM17.1427 13.0278C17.1427 13.0277 17.1427 13.0277 17.1427 13.0277L17.1427 13.0278Z" fill="white"/>
<path fill-rule="evenodd" clip-rule="evenodd" d="M3.51874 10.285C4.13368 9.6475 4.97089 9.4375 5.81781 9.4375C6.70414 9.4375 7.49103 9.71148 8.06652 10.2231C8.64617 10.7384 8.9694 11.4601 8.9694 12.2538C8.9694 12.668 8.63362 13.0038 8.2194 13.0038C7.80519 13.0038 7.4694 12.668 7.4694 12.2538C7.4694 11.8821 7.32463 11.5706 7.06989 11.3441C6.81097 11.114 6.39707 10.9375 5.81781 10.9375C5.19914 10.9375 4.82666 11.0897 4.59831 11.3264C4.36424 11.569 4.14844 12.0379 4.14844 12.9599C4.14844 13.7301 4.46638 14.1384 4.75509 14.3715C4.90966 14.4963 5.0665 14.5779 5.18426 14.6276C5.24235 14.6521 5.28847 14.6678 5.31656 14.6766C5.33053 14.6809 5.33977 14.6835 5.3435 14.6845C5.34383 14.6846 5.34411 14.6846 5.34435 14.6847C5.74378 14.7804 5.9924 15.1803 5.90041 15.5816C5.80786 15.9853 5.40553 16.2376 5.00179 16.145L5.16938 15.414C5.00179 16.145 5.00139 16.145 5.00099 16.1449L5.00014 16.1447L4.99831 16.1442L4.99415 16.1433L4.98384 16.1407C4.97609 16.1388 4.9666 16.1364 4.95548 16.1334C4.93326 16.1275 4.90446 16.1193 4.87 16.1086C4.80124 16.0871 4.70901 16.0551 4.60107 16.0096C4.38679 15.9191 4.10089 15.7712 3.81272 15.5385C3.21596 15.0566 2.64844 14.2378 2.64844 12.9599C2.64844 11.8338 2.90953 10.9165 3.51874 10.285Z" fill="white"/>
<path fill-rule="evenodd" clip-rule="evenodd" d="M14.4815 4.91088C15.7132 4.9998 16.9652 5.65919 17.8635 7.12937C18.6354 8.3924 18.4096 10.0044 17.7217 11.2242C17.0262 12.4574 15.7401 13.5056 14.1154 13.5056C13.1007 13.5056 12.3281 13.0649 11.7194 12.482C11.1568 11.9433 10.6972 11.2454 10.292 10.6302C10.2764 10.6064 10.2608 10.5829 10.2454 10.5594C9.80567 9.89221 9.41974 9.31975 8.97034 8.90293C8.54532 8.50872 8.09869 8.28776 7.52866 8.28776C6.62929 8.28776 5.96148 8.59075 5.58911 8.96368C5.23217 9.32116 5.13452 9.73812 5.29354 10.1575C5.44042 10.5448 5.24552 10.9778 4.85823 11.1247C4.47093 11.2715 4.03789 11.0766 3.89101 10.6893C3.49703 9.65046 3.80795 8.62461 4.52765 7.90382C5.23192 7.19848 6.30881 6.78776 7.52866 6.78776C8.56562 6.78776 9.36062 7.21904 9.9904 7.80316C10.5948 8.36377 11.0763 9.0943 11.4958 9.73083L11.4978 9.73396C11.941 10.4064 12.3193 10.9797 12.7568 11.3986C13.1698 11.7941 13.5892 12.0056 14.1154 12.0056C15.0514 12.0056 15.9042 11.3933 16.4151 10.4874C16.9335 9.5681 16.9814 8.56255 16.5836 7.91152L16.5835 7.91146C15.9277 6.83821 15.1034 6.45968 14.3735 6.40699C13.6019 6.35128 12.8862 6.65543 12.4927 7.02979C12.1926 7.31528 11.7178 7.30343 11.4323 7.00332C11.1469 6.70321 11.1587 6.22848 11.4588 5.94299C12.1605 5.27552 13.2916 4.82497 14.4815 4.91088Z" fill="white"/>
<path fill-rule="evenodd" clip-rule="evenodd" d="M9.73444 6.68046C8.97109 6.77374 8.42486 7.15132 8.24643 7.75137C8.12838 8.14841 7.71081 8.37456 7.31378 8.25651C6.91675 8.13845 6.69059 7.72089 6.80865 7.32386C7.21316 5.96343 8.41965 5.32997 9.55248 5.19153C10.6644 5.05565 11.9371 5.35905 12.7201 6.14198C13.4423 6.86423 13.8113 7.78131 13.7147 8.80625C13.6209 9.80286 13.0962 10.8124 12.2196 11.7891C11.9429 12.0973 11.4687 12.1229 11.1605 11.8463C10.8522 11.5696 10.8266 11.0954 11.1033 10.7871C11.8497 9.95555 12.1676 9.23562 12.2213 8.66558C12.2724 8.12387 12.0939 7.63716 11.6594 7.20264C11.2856 6.82881 10.5187 6.58461 9.73444 6.68046ZM20.6681 8.48329C20.9735 9.0496 21.1091 9.75756 21.046 10.6142C20.9136 12.4093 19.8871 13.4993 18.6031 13.8218C17.3908 14.1262 16.0132 13.7205 15.1967 12.7297C14.9332 12.4101 14.9788 11.9374 15.2985 11.674C15.6181 11.4105 16.0908 11.4561 16.3542 11.7758C16.7817 12.2944 17.5549 12.5384 18.2377 12.3669C18.8489 12.2135 19.4617 11.702 19.55 10.5038C19.5972 9.86386 19.4881 9.45538 19.3478 9.19515C19.2096 8.93882 19.0128 8.77317 18.7874 8.66353C18.5538 8.54994 18.2895 8.49767 18.0499 8.48699C17.932 8.48174 17.8288 8.48699 17.7495 8.49656C17.6745 8.50562 17.6402 8.51615 17.6401 8.51585C17.6401 8.5158 17.641 8.51546 17.6427 8.51478C17.2559 8.66285 16.8223 8.46929 16.6742 8.08244C16.5261 7.6956 16.7197 7.26197 17.1065 7.1139C17.3682 7.01372 17.7432 6.97184 18.1167 6.98848C18.5088 7.00595 18.984 7.09115 19.4435 7.31463C19.911 7.54205 20.3607 7.91306 20.6681 8.48329Z" fill="white"/>
</g>
</g>
<defs>
<linearGradient id="paint0_linear_6028_4551" x1="20.3855" y1="25.7349" x2="-6.16222" y2="7.36391" gradientUnits="userSpaceOnUse">
<stop stop-color="#0AFE4E"/>
<stop offset="0.272998" stop-color="#0A4DFE"/>
<stop offset="1" stop-color="#CB00FE"/>
</linearGradient>
<clipPath id="clip0_6028_4551">
<rect width="24" height="24" fill="white"/>
</clipPath>
<clipPath id="clip1_6028_4551">
<rect width="20.8193" height="20.8193" fill="white" transform="translate(1.44531 2.3125)"/>
</clipPath>
</defs>
</svg>
