<svg width="56" height="56" viewBox="0 0 56 56" fill="none" xmlns="http://www.w3.org/2000/svg">
<rect width="56" height="56" rx="6" fill="black"/>
<path d="M22.9229 37.9754C22.9229 35.9316 24.3236 34.531 26.2918 34.531C28.3359 34.531 29.6606 35.9316 29.6986 37.9754C29.6986 39.9436 28.3734 41.42 26.2918 41.42C24.2854 41.42 22.9229 39.9436 22.9229 37.9754Z" fill="white"/>
<path d="M36.0979 23.7006C35.8999 22.9921 34.1455 21.6404 34.1266 20.4793C34.1266 20.4615 34.123 20.4445 34.1224 20.4268C34.0233 17.2926 31.7088 14.5801 26.8219 14.5801C24.1344 14.5801 21.9012 15.3568 20.5005 16.1722L21.7875 20.4048C22.7717 19.7057 24.2857 19.2399 25.5349 19.2399C27.4274 19.2787 28.2981 20.2104 28.2981 21.5698C28.2981 22.8514 27.314 24.1326 26.1027 25.6469C24.3993 27.7049 23.7559 29.7241 23.8692 31.7045L23.9056 32.6726H28.9415V32.3265C28.9753 31.5279 29.2161 29.7564 30.6758 29.5036C31.6297 29.3383 33.0513 30.0744 33.7505 29.2902C34.0146 28.9939 34.2299 28.3059 34.1087 27.9499C34.0071 27.6523 33.8818 27.3438 34.1448 27.0639C34.3049 26.8933 34.8167 26.9315 34.6948 26.3935C34.6445 26.1721 34.3306 26.1587 34.3422 25.9563C34.3529 25.7581 34.8314 25.847 34.9083 25.5739C35.0147 25.1982 34.2517 24.5613 34.9083 24.4205C35.1083 24.3788 35.3113 24.3533 35.5154 24.3443C35.9676 24.3287 36.1645 23.9388 36.0979 23.7006Z" fill="white"/>
</svg>
