<svg width="111" height="49" viewBox="0 0 111 49" fill="none" xmlns="http://www.w3.org/2000/svg">
<path d="M63.6812 34.6136H67.5092C68.3012 34.6136 68.9372 34.8056 69.4052 35.1896C69.8612 35.5736 70.0892 36.1016 70.0892 36.7736C70.0892 37.2536 69.9572 37.6736 69.7052 38.0216C69.4412 38.3336 69.0932 38.5616 68.6612 38.7056C69.2252 38.8016 69.6572 39.0416 69.9692 39.4016C70.2812 39.7616 70.4492 40.2176 70.4492 40.7936C70.4492 41.6336 70.1492 42.2576 69.5612 42.6656C69.0572 43.0016 68.3612 43.1816 67.4852 43.1816H63.6812V34.6136ZM64.6652 35.4416V38.3576H67.2692C67.8692 38.3576 68.3252 38.2256 68.6372 37.9856C68.9492 37.7336 69.1172 37.3616 69.1172 36.8696C69.1172 36.3896 68.9612 36.0296 68.6492 35.7896C68.3372 35.5496 67.8812 35.4416 67.2812 35.4416H64.6652ZM64.6652 39.1736V42.3536H67.4012C68.0012 42.3536 68.4692 42.2336 68.8292 42.0176C69.2492 41.7536 69.4652 41.3336 69.4652 40.7816C69.4652 40.2296 69.2732 39.8216 68.9132 39.5576C68.5652 39.2936 68.0612 39.1736 67.4012 39.1736H64.6652ZM74.4063 36.8096C74.7423 36.8096 75.0303 36.8576 75.2583 36.9536V37.9136C74.9463 37.8176 74.6343 37.7816 74.3343 37.7816C73.8543 37.7816 73.4463 37.9856 73.1223 38.4176C72.7863 38.8256 72.6303 39.3176 72.6303 39.8936V43.1816H71.6823V36.9776H72.6303V38.0576C72.7983 37.6976 73.0143 37.4096 73.2783 37.2056C73.6023 36.9416 73.9743 36.8096 74.4063 36.8096ZM78.7651 36.8096C79.6531 36.8096 80.3011 37.0376 80.7331 37.5056C81.0931 37.9136 81.2851 38.4776 81.2851 39.1976V43.1816H80.3851V42.1376C80.1451 42.4736 79.8211 42.7496 79.4371 42.9656C78.9811 43.2176 78.4651 43.3496 77.8891 43.3496C77.2651 43.3496 76.7731 43.1936 76.4011 42.8816C76.0171 42.5576 75.8251 42.1376 75.8251 41.6336C75.8251 40.9256 76.1011 40.3976 76.6771 40.0376C77.1811 39.7016 77.9011 39.5216 78.8371 39.5096L80.3251 39.4856V39.1616C80.3251 38.1176 79.7851 37.6016 78.7051 37.6016C78.2491 37.6016 77.8771 37.6856 77.5891 37.8776C77.2651 38.0696 77.0611 38.3696 76.9651 38.7656L76.0171 38.6936C76.1491 38.0456 76.4731 37.5536 76.9771 37.2416C77.4331 36.9536 78.0211 36.8096 78.7651 36.8096ZM80.3251 40.2056L78.8971 40.2296C77.5051 40.2536 76.8091 40.7096 76.8091 41.6096C76.8091 41.8976 76.9171 42.1256 77.1571 42.3176C77.3971 42.4976 77.7091 42.5936 78.0931 42.5936C78.6811 42.5936 79.1971 42.4016 79.6531 42.0176C80.0971 41.6456 80.3251 41.2136 80.3251 40.7336V40.2056ZM83.5602 34.6376C83.7642 34.6376 83.9322 34.6976 84.0762 34.8416C84.2202 34.9616 84.2922 35.1296 84.2922 35.3456C84.2922 35.5496 84.2202 35.7176 84.0762 35.8616C83.9322 35.9936 83.7642 36.0656 83.5602 36.0656C83.3562 36.0656 83.1882 35.9936 83.0442 35.8616C82.9002 35.7176 82.8402 35.5496 82.8402 35.3456C82.8402 35.1296 82.9002 34.9616 83.0442 34.8416C83.1882 34.6976 83.3562 34.6376 83.5602 34.6376ZM83.0802 36.9776H84.0402V43.1816H83.0802V36.9776ZM88.7425 36.8096C90.2785 36.8096 91.0585 37.6616 91.0585 39.3656V43.1816H90.0985V39.4376C90.0985 38.2256 89.5465 37.6256 88.4665 37.6256C88.0345 37.6256 87.6625 37.7816 87.3505 38.0936C87.0145 38.4296 86.8345 38.8736 86.7985 39.4376V43.1816H85.8385V36.9776H86.7985V37.8896C87.0145 37.5416 87.2905 37.2776 87.6265 37.0976C87.9625 36.9056 88.3345 36.8096 88.7425 36.8096ZM91.8576 36.9776H92.9016L94.7976 41.8736L96.6336 36.9776H97.6896L94.2936 45.5576H93.2496L94.3176 43.0376L91.8576 36.9776ZM101.123 34.6136H102.263L105.635 43.1816H104.567L103.655 40.7816H99.7188L98.8068 43.1816H97.7508L101.123 34.6136ZM100.031 39.9536H103.343L101.723 35.6696H101.675L100.031 39.9536ZM106.573 34.6136H107.545V43.1816H106.573V34.6136Z" fill="#C2C2C2"/>
<circle cx="50.6952" cy="19.6932" r="13.9843" fill="#C2C2C2"/>
<rect x="11.3594" y="15.3242" width="43.7008" height="28.8425" rx="14.4213" fill="#C2C2C2"/>
<rect y="39.7969" width="27.9685" height="4.37008" rx="2.18504" fill="#C2C2C2"/>
<rect x="46.7617" y="31.9297" width="16.6063" height="4.37008" rx="2.18504" transform="rotate(30 46.7617 31.9297)" fill="#C2C2C2"/>
<path d="M38.4186 4.13981L48.9547 8.95623L41.4504 15.3209L38.4186 4.13981Z" fill="#C2C2C2"/>
<path d="M62.3236 5.01286L51.7874 9.82928L59.2918 16.1939L62.3236 5.01286Z" fill="#C2C2C2"/>
<circle cx="49.8174" cy="17.9463" r="2.62205" fill="white"/>
<circle cx="59.4345" cy="17.9463" r="2.62205" fill="white"/>
</svg>
