<svg width="127" height="55" viewBox="0 0 127 55" fill="none" xmlns="http://www.w3.org/2000/svg">
<path d="M70.5375 39.29H75.3225C76.3125 39.29 77.1075 39.53 77.6925 40.01C78.2625 40.49 78.5475 41.15 78.5475 41.99C78.5475 42.59 78.3825 43.115 78.0675 43.55C77.7375 43.94 77.3025 44.225 76.7625 44.405C77.4675 44.525 78.0075 44.825 78.3975 45.275C78.7875 45.725 78.9975 46.295 78.9975 47.015C78.9975 48.065 78.6225 48.845 77.8875 49.355C77.2575 49.775 76.3875 50 75.2925 50H70.5375V39.29ZM71.7675 40.325V43.97H75.0225C75.7725 43.97 76.3425 43.805 76.7325 43.505C77.1225 43.19 77.3325 42.725 77.3325 42.11C77.3325 41.51 77.1375 41.06 76.7475 40.76C76.3575 40.46 75.7875 40.325 75.0375 40.325H71.7675ZM71.7675 44.99V48.965H75.1875C75.9375 48.965 76.5225 48.815 76.9725 48.545C77.4975 48.215 77.7675 47.69 77.7675 47C77.7675 46.31 77.5275 45.8 77.0775 45.47C76.6425 45.14 76.0125 44.99 75.1875 44.99H71.7675ZM83.9439 42.035C84.3639 42.035 84.7239 42.095 85.0089 42.215V43.415C84.6189 43.295 84.2289 43.25 83.8539 43.25C83.2539 43.25 82.7439 43.505 82.3389 44.045C81.9189 44.555 81.7239 45.17 81.7239 45.89V50H80.5389V42.245H81.7239V43.595C81.9339 43.145 82.2039 42.785 82.5339 42.53C82.9389 42.2 83.4039 42.035 83.9439 42.035ZM89.3924 42.035C90.5024 42.035 91.3124 42.32 91.8524 42.905C92.3024 43.415 92.5424 44.12 92.5424 45.02V50H91.4174V48.695C91.1174 49.115 90.7124 49.46 90.2324 49.73C89.6624 50.045 89.0174 50.21 88.2974 50.21C87.5174 50.21 86.9024 50.015 86.4374 49.625C85.9574 49.22 85.7174 48.695 85.7174 48.065C85.7174 47.18 86.0624 46.52 86.7824 46.07C87.4124 45.65 88.3124 45.425 89.4824 45.41L91.3424 45.38V44.975C91.3424 43.67 90.6674 43.025 89.3174 43.025C88.7474 43.025 88.2824 43.13 87.9224 43.37C87.5174 43.61 87.2624 43.985 87.1424 44.48L85.9574 44.39C86.1224 43.58 86.5274 42.965 87.1574 42.575C87.7274 42.215 88.4624 42.035 89.3924 42.035ZM91.3424 46.28L89.5574 46.31C87.8174 46.34 86.9474 46.91 86.9474 48.035C86.9474 48.395 87.0824 48.68 87.3824 48.92C87.6824 49.145 88.0724 49.265 88.5524 49.265C89.2874 49.265 89.9324 49.025 90.5024 48.545C91.0574 48.08 91.3424 47.54 91.3424 46.94V46.28ZM95.3863 39.32C95.6413 39.32 95.8513 39.395 96.0313 39.575C96.2113 39.725 96.3013 39.935 96.3013 40.205C96.3013 40.46 96.2113 40.67 96.0313 40.85C95.8513 41.015 95.6413 41.105 95.3863 41.105C95.1313 41.105 94.9213 41.015 94.7413 40.85C94.5613 40.67 94.4863 40.46 94.4863 40.205C94.4863 39.935 94.5613 39.725 94.7413 39.575C94.9213 39.395 95.1313 39.32 95.3863 39.32ZM94.7863 42.245H95.9863V50H94.7863V42.245ZM101.864 42.035C103.784 42.035 104.759 43.1 104.759 45.23V50H103.559V45.32C103.559 43.805 102.869 43.055 101.519 43.055C100.979 43.055 100.514 43.25 100.124 43.64C99.7042 44.06 99.4792 44.615 99.4342 45.32V50H98.2342V42.245H99.4342V43.385C99.7042 42.95 100.049 42.62 100.469 42.395C100.889 42.155 101.354 42.035 101.864 42.035ZM105.758 42.245H107.063L109.433 48.365L111.728 42.245H113.048L108.803 52.97H107.498L108.833 49.82L105.758 42.245ZM117.34 39.29H118.765L122.98 50H121.645L120.505 47H115.585L114.445 50H113.125L117.34 39.29ZM115.975 45.965H120.115L118.09 40.61H118.03L115.975 45.965ZM124.153 39.29H125.368V50H124.153V39.29Z" fill="#333333"/>
<circle cx="58" cy="22" r="16" fill="#333333"/>
<rect x="13" y="17" width="50" height="33" rx="16.5" fill="#333333"/>
<rect y="45" width="32" height="5" rx="2.5" fill="#333333"/>
<rect x="53.5" y="36" width="19" height="5" rx="2.5" transform="rotate(30 53.5 36)" fill="#333333"/>
<path d="M43.9572 4.20388L56.0121 9.71456L47.426 16.9967L43.9572 4.20388Z" fill="#333333"/>
<path d="M71.3045 5.20388L59.2497 10.7146L67.8358 17.9967L71.3045 5.20388Z" fill="#333333"/>
<circle cx="57" cy="20" r="3" fill="white"/>
<circle cx="68" cy="20" r="3" fill="white"/>
</svg>
