<svg width="20" height="20" viewBox="0 0 20 20" fill="none" xmlns="http://www.w3.org/2000/svg">
    <g clip-path="url(#clip0_5948_3105)">
        <path d="M10 0C4.55769 0 0 4.064 0 9.2C0 11.624 1.04538 13.7984 2.69231 15.4248C2.49166 15.9688 2.20745 16.4754 1.85077 16.9248C1.37759 17.5218 0.854807 18.0743 0.288462 18.576C0.164243 18.6796 0.0740182 18.8208 0.0302377 18.9801C-0.0135428 19.1393 -0.00872022 19.3088 0.0440399 19.465C0.0967999 19.6213 0.194896 19.7567 0.324792 19.8525C0.454687 19.9483 0.609977 19.9999 0.769231 20C2.47308 20 3.69846 19.98 4.80769 19.6752C5.8 19.4016 6.65308 18.8288 7.52385 18.0248C8.31615 18.2224 9.13385 18.4 10 18.4C15.4423 18.4 20 14.336 20 9.2C20 4.064 15.4423 0 10 0Z" fill="url(#paint0_linear_5948_3105)"/>
        <path d="M8.17338 4.92547C8.27409 4.82618 8.39875 4.75707 8.53415 4.72547C8.58988 4.71911 8.64611 4.71911 8.70184 4.72547H11.1541C11.2636 4.72601 11.3717 4.75084 11.4712 4.7983C11.5707 4.84576 11.6593 4.91475 11.7311 5.00067L12.8849 6.35107C13.0079 6.49609 13.0762 6.68251 13.0772 6.87587V8.80067C13.0794 8.93338 13.0499 9.06459 12.9912 9.18246C12.9325 9.30033 12.8466 9.40116 12.7411 9.47587L10.7695 10.8503V12.0007H9.23107V10.4007C9.22897 10.2681 9.25859 10.137 9.31727 10.0193C9.37595 9.90161 9.46184 9.8009 9.56722 9.72627L11.5388 8.35187V7.17667L10.8172 6.32547H8.96645L8.05338 7.22547L7.01953 6.05107L8.17338 4.92547Z" fill="white"/>
        <path d="M9.23107 14.4007V12.8007H10.7695V14.4007H9.23107Z" fill="white"/>
    </g>
    <defs>
        <linearGradient id="paint0_linear_5948_3105" x1="3.91097" y1="1.47391" x2="16.7253" y2="19.484" gradientUnits="userSpaceOnUse">
            <stop stop-color="#0A4DFE"/>
            <stop offset="1" stop-color="#0046FF" stop-opacity="0.5"/>
        </linearGradient>
        <clipPath id="clip0_5948_3105">
            <rect width="20" height="20" fill="white"/>
        </clipPath>
    </defs>
</svg>
