<svg width="12" height="13" viewBox="0 0 12 13" fill="none" xmlns="http://www.w3.org/2000/svg">
<g clip-path="url(#clip0_6807_4687)">
<path fill-rule="evenodd" clip-rule="evenodd" d="M0 6.51367C0 3.20028 2.68661 0.513672 6 0.513672C9.31339 0.513672 12 3.20028 12 6.51367C12 9.82706 9.31339 12.5137 6 12.5137C2.68661 12.5137 0 9.82706 0 6.51367ZM8.21523 4.28809C8.27416 4.28809 8.32238 4.3363 8.32238 4.39523C8.32238 4.42068 8.31434 4.44612 8.29827 4.46487L6.55586 6.54076L8.29559 8.61532C8.31166 8.63541 8.32104 8.65951 8.32104 8.68496C8.32104 8.74523 8.27282 8.7921 8.21389 8.7921L7.32997 8.78809L6.00006 7.20237L4.67015 8.78943L3.78488 8.79344C3.72595 8.79344 3.67773 8.74523 3.67773 8.6863C3.67802 8.66086 3.687 8.63629 3.70318 8.61666L5.44559 6.5421L3.70318 4.46621C3.68711 4.44612 3.67773 4.42201 3.67773 4.39657C3.67773 4.3363 3.72595 4.28943 3.78488 4.28943L4.67015 4.29344L6.00006 5.87916L7.33131 4.2921L8.21523 4.28809Z" fill="#0A4DFE"/>
</g>
<defs>
<clipPath id="clip0_6807_4687">
<rect width="12" height="12" fill="white" transform="translate(0 0.5)"/>
</clipPath>
</defs>
</svg>
