<svg width="16" height="16" viewBox="0 0 16 16" fill="none" xmlns="http://www.w3.org/2000/svg">
<path d="M13.5352 10.0602C13.2415 10.7505 12.8156 11.3704 12.2731 11.9061C11.7365 12.436 11.1004 12.8581 10.4001 13.149C9.67499 13.4517 8.89514 13.6069 8.1075 13.6051C7.45624 13.6051 6.81896 13.5026 6.21277 13.299C4.79677 13.9495 3.16161 14 2.6922 14C2.658 14 2.57718 14 2.54609 13.9969C2.36113 13.9908 2.1917 13.8974 2.09223 13.7459C1.99119 13.5944 1.97254 13.4031 2.03938 13.2332L3.03882 10.7597C2.50064 9.8644 2.21715 8.84294 2.21813 7.80255C2.21813 7.01582 2.37356 6.25663 2.68132 5.54337C2.97509 4.85459 3.39942 4.23316 3.94344 3.69898C4.48279 3.16633 5.11541 2.74847 5.81641 2.45612C6.54229 2.15306 7.31324 2 8.1075 2C8.90488 2 9.67583 2.15459 10.4033 2.45612C11.1012 2.74541 11.7322 3.1648 12.2747 3.69898C12.814 4.23163 13.2399 4.85306 13.5368 5.5449C13.8441 6.25956 14.0016 7.02799 14 7.80408C13.9969 8.58776 13.843 9.34694 13.5352 10.0602ZM12.5032 5.98112C12.2635 5.42057 11.9156 4.91115 11.4789 4.48112C11.0374 4.0449 10.526 3.7051 9.96027 3.47245H9.95871C9.36807 3.22755 8.74167 3.10204 8.09507 3.10204C7.46696 3.10136 6.84492 3.22298 6.26473 3.45992C5.68454 3.69686 5.15765 4.04444 4.71439 4.48265C4.27296 4.91888 3.9279 5.42245 3.69164 5.97959V5.98112C3.44294 6.55969 3.31704 7.17806 3.31704 7.81633C3.31704 8.66429 3.54708 9.49541 3.9823 10.2194L4.18747 10.5577L4.03981 10.9235L3.24243 12.898C3.47403 12.8888 3.80044 12.8658 4.17037 12.8122C4.85117 12.7128 5.4527 12.5444 5.9563 12.3133L6.25163 12.177L6.56094 12.2811C7.05055 12.4464 7.56815 12.5291 8.09818 12.5291C8.72628 12.5298 9.34832 12.4081 9.92851 12.1712C10.5087 11.9343 11.0356 11.5867 11.4789 11.1485C11.9203 10.7122 12.2653 10.2087 12.5016 9.65153L12.5032 9.65L12.5047 9.64847C12.7534 9.07296 12.8793 8.45459 12.8809 7.8148C12.8793 7.17653 12.7519 6.55969 12.5032 5.98112ZM9.56458 8.42857C9.2475 8.42857 8.98793 8.17296 8.98793 7.86071V7.01735C8.98793 6.7051 9.24594 6.44949 9.56458 6.44949C9.88322 6.44949 10.1412 6.7051 10.1412 7.01735V7.86071C10.1412 8.17449 9.88167 8.42857 9.56458 8.42857ZM6.84139 8.42857C6.52275 8.42857 6.26473 8.17296 6.26473 7.86071V7.01735C6.26473 6.7051 6.5243 6.44949 6.84139 6.44949C7.16003 6.44949 7.41805 6.7051 7.41805 7.01735V7.86071C7.41805 8.17449 7.15847 8.42857 6.84139 8.42857Z" fill="#D8D8E7"/>
</svg>
