<svg width="16" height="16" viewBox="0 0 16 16" fill="none" xmlns="http://www.w3.org/2000/svg">
<path d="M14.9642 7.92356L9.42605 2.03922C9.41457 2.02679 9.40094 2.01693 9.38592 2.0102C9.3709 2.00347 9.3548 2 9.33853 2C9.32227 2 9.30617 2.00347 9.29115 2.0102C9.27613 2.01693 9.2625 2.02679 9.25102 2.03922L5.52087 6.00256C5.4974 6.02767 5.48407 6.06176 5.48377 6.09742C5.48348 6.13308 5.49625 6.16742 5.51931 6.19297L5.52087 6.19466L6.14595 6.85858L4.31447 8.80149C4.291 8.82661 4.27767 8.8607 4.27737 8.89636C4.27708 8.93201 4.28985 8.96635 4.31291 8.99191L4.31447 8.9936L4.93174 9.6491L1.97668 12.8002H1.12658C1.05782 12.8002 1 12.8609 1 12.935V13.8652C1 13.9393 1.05626 14 1.12502 14H6.51475C6.54756 14 6.57882 13.9865 6.60226 13.9612L7.79147 12.6873L8.4228 13.358C8.43427 13.3704 8.4479 13.3803 8.46292 13.387C8.47794 13.3937 8.49404 13.3972 8.51031 13.3972C8.52657 13.3972 8.54267 13.3937 8.55769 13.387C8.57271 13.3803 8.58635 13.3704 8.59782 13.358L10.4277 11.41L11.0544 12.0756C11.0658 12.0881 11.0795 12.0979 11.0945 12.1047C11.1095 12.1114 11.1256 12.1149 11.1419 12.1149C11.1581 12.1149 11.1743 12.1114 11.1893 12.1047C11.2043 12.0979 11.2179 12.0881 11.2294 12.0756L14.9595 8.11229C15.0127 8.06174 15.0127 7.97749 14.9642 7.92356ZM6.09126 12.7901H3.58782L5.68808 10.5489L6.9398 11.8785L6.09126 12.7901ZM8.51031 11.7437L5.83185 8.89754L6.90386 7.75842L9.58232 10.6045L8.51031 11.7437ZM11.1434 10.4613L7.03669 6.09861L9.33853 3.65354L13.4453 8.01793L11.1434 10.4613Z" fill="#D8D8E7"/>
</svg>
