<svg width="16" height="16" viewBox="0 0 16 16" fill="none" xmlns="http://www.w3.org/2000/svg">
<path d="M12.5455 2.64286H11.0114V2.10714C11.0114 2.04821 10.9602 2 10.8977 2H10.1023C10.0398 2 9.98864 2.04821 9.98864 2.10714V2.64286H7.82955V2.10714C7.82955 2.04821 7.77841 2 7.71591 2H6.92045C6.85795 2 6.80682 2.04821 6.80682 2.10714V2.64286H5.27273C5.02131 2.64286 4.81818 2.83438 4.81818 3.07143V4.67857H3.45455C3.20312 4.67857 3 4.87009 3 5.10714V13.5714C3 13.8085 3.20312 14 3.45455 14H10.7273C10.9787 14 11.1818 13.8085 11.1818 13.5714V12.2857H12.5455C12.7969 12.2857 13 12.0942 13 11.8571V3.07143C13 2.83438 12.7969 2.64286 12.5455 2.64286ZM10.1591 13.0357H4.02273V5.64286H7.11932V7.97321C7.11932 8.2692 7.37358 8.50893 7.6875 8.50893H10.1591V13.0357ZM10.1591 7.65179H8.02841V5.64286H8.03125L10.1591 7.64911V7.65179ZM11.9773 11.3214H11.1818V7.25L8.45455 4.67857H5.84091V3.60714H6.80682V4.03571C6.80682 4.09464 6.85795 4.14286 6.92045 4.14286H7.71591C7.77841 4.14286 7.82955 4.09464 7.82955 4.03571V3.60714H9.98864V4.03571C9.98864 4.09464 10.0398 4.14286 10.1023 4.14286H10.8977C10.9602 4.14286 11.0114 4.09464 11.0114 4.03571V3.60714H11.9773V11.3214Z" fill="#D8D8E7"/>
</svg>
