<svg width="16" height="16" viewBox="0 0 16 16" fill="none" xmlns="http://www.w3.org/2000/svg">
<path d="M3.03261 3.95H10.9674V6H12V3.4C12 3.17875 11.8057 3 11.5652 3H2.43478C2.19429 3 2 3.17875 2 3.4V12.6C2 12.8212 2.19429 13 2.43478 13H9.82609V12.05H3.03261V3.95Z" fill="#D8D8E7"/>
<path d="M6.6396 5H5.82223C5.77637 5 5.73591 5.02683 5.71972 5.06585L4.0054 9.55366C4.00135 9.56341 4 9.57439 4 9.58537C4 9.63902 4.04856 9.68293 4.1079 9.68293H4.85109C4.89695 9.68293 4.93742 9.6561 4.9536 9.61707L5.39466 8.46341H8.041L6.74346 5.06585C6.73536 5.04678 6.72115 5.03033 6.70265 5.01859C6.68415 5.00686 6.66219 5.00039 6.6396 5ZM6.80685 7.78049H5.65363L6.23091 6.27073L6.80685 7.78049ZM13.6763 8.31707H11.8419V7.18293C11.8419 7.12927 11.7934 7.08537 11.734 7.08537H10.9787C10.9193 7.08537 10.8708 7.12927 10.8708 7.18293V8.31707H9.03642C8.85703 8.31707 8.71271 8.44756 8.71271 8.60976V10.7561C8.71271 10.9183 8.85703 11.0488 9.03642 11.0488H10.8708V12.9024C10.8708 12.9561 10.9193 13 10.9787 13H11.734C11.7934 13 11.8419 12.9561 11.8419 12.9024V11.0488H13.6763C13.8557 11.0488 14 10.9183 14 10.7561V8.60976C14 8.44756 13.8557 8.31707 13.6763 8.31707ZM10.8708 10.1707H9.68384V9.19512H10.8708V10.1707ZM13.0289 10.1707H11.8419V9.19512H13.0289V10.1707Z" fill="#D8D8E7"/>
</svg>
