<svg width="16" height="16" viewBox="0 0 16 16" fill="none" xmlns="http://www.w3.org/2000/svg">
<path d="M8 2C4.68661 2 2 4.68661 2 8C2 11.3134 4.68661 14 8 14C11.3134 14 14 11.3134 14 8C14 4.68661 11.3134 2 8 2ZM8 12.9821C5.24911 12.9821 3.01786 10.7509 3.01786 8C3.01786 5.24911 5.24911 3.01786 8 3.01786C10.7509 3.01786 12.9821 5.24911 12.9821 8C12.9821 10.7509 10.7509 12.9821 8 12.9821Z" fill="#D8D8E7"/>
<path d="M9.39606 5.49234C9.02094 5.17419 8.52579 5 8.00062 5C7.47546 5 6.9803 5.1754 6.60519 5.49234C6.21507 5.82258 6 6.26653 6 6.74194V6.83387C6 6.8871 6.04501 6.93065 6.10003 6.93065H6.70022C6.75523 6.93065 6.80025 6.8871 6.80025 6.83387V6.74194C6.80025 6.20847 7.33917 5.77419 8.00062 5.77419C8.66208 5.77419 9.201 6.20847 9.201 6.74194C9.201 7.11814 8.92591 7.4629 8.49953 7.62137C8.23445 7.71935 8.00937 7.89113 7.84807 8.11613C7.68427 8.34597 7.59925 8.62177 7.59925 8.90121V9.16129C7.59925 9.21452 7.64426 9.25806 7.69928 9.25806H8.29947C8.35448 9.25806 8.3995 9.21452 8.3995 9.16129V8.88669C8.40014 8.76926 8.43735 8.65474 8.50627 8.55807C8.5752 8.4614 8.67263 8.38706 8.78587 8.34476C9.5236 8.07016 9.99999 7.44113 9.99999 6.74194C10.0012 6.26653 9.78618 5.82258 9.39606 5.49234ZM7.50047 10.5161C7.50047 10.6445 7.55316 10.7675 7.64696 10.8583C7.74076 10.949 7.86797 11 8.00062 11C8.13327 11 8.26049 10.949 8.35429 10.8583C8.44808 10.7675 8.50078 10.6445 8.50078 10.5161C8.50078 10.3878 8.44808 10.2647 8.35429 10.174C8.26049 10.0832 8.13327 10.0323 8.00062 10.0323C7.86797 10.0323 7.74076 10.0832 7.64696 10.174C7.55316 10.2647 7.50047 10.3878 7.50047 10.5161Z" fill="#D8D8E7"/>
</svg>
