<svg width="16" height="16" viewBox="0 0 16 16" fill="none" xmlns="http://www.w3.org/2000/svg">
<path d="M13.5472 3.00699H8.50943V2.11189C8.50943 2.05035 8.45849 2 8.39623 2H7.60377C7.54151 2 7.49057 2.05035 7.49057 2.11189V3.00699H2.45283C2.20236 3.00699 2 3.20699 2 3.45454V10.7272C2 10.9748 2.20236 11.1748 2.45283 11.1748H7.49623V11.6223L5.16415 13.1342C5.15175 13.1422 5.14107 13.1525 5.13272 13.1645C5.12437 13.1766 5.11851 13.1902 5.11549 13.2045C5.11246 13.2188 5.11233 13.2335 5.11509 13.2479C5.11786 13.2622 5.12347 13.2759 5.1316 13.2881L5.56038 13.9482V13.9496C5.59434 14.0014 5.66509 14.0153 5.71745 13.9818L8 12.5021L10.2825 13.9818C10.3349 14.0153 10.4057 14.0014 10.4396 13.9496V13.9482L10.8684 13.2881C10.8845 13.2633 10.8901 13.2333 10.8841 13.2045C10.878 13.1758 10.8606 13.1505 10.8358 13.1342L8.50943 11.6265V11.1748H13.5472C13.7976 11.1748 14 10.9748 14 10.7272V3.45454C14 3.20699 13.7976 3.00699 13.5472 3.00699ZM12.9811 10.1678H3.01887V4.01398H12.9811V10.1678Z" fill="#D8D8E7"/>
<path d="M10.8267 6.17773C11.1462 6.17773 11.3989 6.24926 11.5897 6.39232C11.7852 6.54492 11.9091 6.77381 11.9568 7.08376H11.418C11.3846 6.9264 11.3178 6.81196 11.2225 6.73566C11.1223 6.65936 10.9888 6.62121 10.8267 6.62121C10.6264 6.62121 10.469 6.69274 10.3546 6.84534C10.2401 6.99316 10.1829 7.20298 10.1829 7.47002C10.1829 7.74183 10.2354 7.95641 10.3498 8.10901C10.4547 8.25684 10.6121 8.33313 10.8219 8.33313C11.1843 8.33313 11.3846 8.15193 11.4275 7.79428H11.9664C11.9091 8.12808 11.7804 8.37605 11.5849 8.53818C11.3941 8.69554 11.1366 8.77661 10.8171 8.77661C10.4357 8.77661 10.14 8.65263 9.93019 8.40466C9.72514 8.16623 9.625 7.85627 9.625 7.47479C9.625 7.10284 9.72514 6.79765 9.92542 6.56399C10.14 6.30649 10.4404 6.17773 10.8267 6.17773Z" fill="#D8D8E7"/>
<path d="M6.85156 5.23633H7.39518V6.58107C7.59546 6.30926 7.84343 6.17574 8.12954 6.17574C8.48242 6.17574 8.75899 6.30449 8.96404 6.56199C9.15002 6.80042 9.24539 7.10084 9.24539 7.46325C9.24539 7.83997 9.15002 8.14993 8.95927 8.38836C8.74946 8.64586 8.46334 8.77461 8.10093 8.77461C7.77667 8.77461 7.5287 8.66494 7.35703 8.44558V8.70785H6.85156V5.23633ZM8.00079 6.61445C7.82435 6.61445 7.6813 6.68598 7.56685 6.82903C7.4381 6.98163 7.37611 7.19145 7.37611 7.45372V7.49187C7.37611 7.7303 7.42379 7.93058 7.5287 8.08317C7.64315 8.25007 7.80528 8.33591 8.01986 8.33591C8.25829 8.33591 8.43473 8.25007 8.54918 8.0784C8.63978 7.93534 8.68747 7.7303 8.68747 7.46325C8.68747 7.19621 8.63501 6.99593 8.53964 6.85765C8.42519 6.69551 8.24399 6.61445 8.00079 6.61445Z" fill="#D8D8E7"/>
<path d="M5.24333 6.17773C5.60574 6.17773 5.87755 6.26834 6.04922 6.44954C6.20182 6.60691 6.27811 6.8358 6.27811 7.13622V8.70985H5.77264V8.38559C5.67727 8.50957 5.55806 8.60017 5.41977 8.66693C5.26241 8.73846 5.07643 8.77661 4.86185 8.77661C4.60434 8.77661 4.40406 8.70985 4.25624 8.5811C4.10364 8.44758 4.02734 8.28068 4.02734 8.07563C4.02734 7.79905 4.13225 7.58447 4.35161 7.43664C4.55189 7.29358 4.83323 7.21728 5.19565 7.20775L5.7345 7.19344V7.09807C5.7345 6.77381 5.55806 6.61644 5.20518 6.61644C5.05259 6.61644 4.93337 6.64029 4.84277 6.69751C4.73786 6.7595 4.66633 6.85487 4.63772 6.98362L4.09887 6.94071C4.15133 6.6689 4.28485 6.46862 4.49943 6.34463C4.68064 6.23019 4.92861 6.17773 5.24333 6.17773ZM5.7345 7.58447L5.23379 7.59877C4.79985 7.60831 4.58527 7.7609 4.58527 8.05655C4.58527 8.14239 4.61865 8.21392 4.69494 8.27114C4.77124 8.32836 4.86661 8.36174 4.98583 8.36174C5.19565 8.36174 5.37208 8.29975 5.51514 8.18054C5.6582 8.05656 5.7345 7.89919 5.7345 7.70845V7.58447Z" fill="#D8D8E7"/>
</svg>
