<svg width="20" height="20" viewBox="0 0 20 20" fill="none" xmlns="http://www.w3.org/2000/svg">
<g clip-path="url(#clip0_5998_3504)">
<mask id="path-1-inside-1_5998_3504" fill="white">
<path d="M15.7942 4.5C16.2725 4.77614 16.4364 5.38773 16.1603 5.86603L15.8269 6.44338C15.5508 6.92167 14.9392 7.08554 14.4609 6.8094L13.8835 6.47607L13.3269 10.7735L13.5008 13.4698C13.5135 13.6668 13.4676 13.8631 13.3689 14.0341L13.187 14.3493C12.9108 14.8275 12.2992 14.9914 11.8209 14.7153L8.35684 12.7153L3.88515 18.7938L6.91346 11.8819L3.44936 9.88194C2.97107 9.6058 2.80719 8.99421 3.08333 8.51592L3.26528 8.20078C3.36399 8.0298 3.5111 7.89187 3.68808 7.80437L6.11004 6.60684L9.55342 3.97607L8.97607 3.64273C8.49777 3.36659 8.3339 2.755 8.61004 2.27671L8.94338 1.69936C9.21952 1.22107 9.83111 1.05719 10.3094 1.33333L15.7942 4.5Z"/>
</mask>
<path d="M13.8835 6.47607L14.3835 5.61004C14.094 5.44287 13.74 5.43146 13.4403 5.57966C13.1406 5.72785 12.9348 6.01603 12.8918 6.34762L13.8835 6.47607ZM13.3269 10.7735L12.3352 10.6451L12.3228 10.7412L12.329 10.8379L13.3269 10.7735ZM8.35684 12.7153L8.85684 11.8493L8.08171 11.4017L7.55132 12.1227L8.35684 12.7153ZM6.91346 11.8819L7.8294 12.2832L8.18859 11.4634L7.41346 11.0159L6.91346 11.8819ZM6.11004 6.60684L6.55327 7.50325L6.64014 7.46029L6.71714 7.40146L6.11004 6.60684ZM9.55342 3.97607L10.1605 4.77069C10.4262 4.56771 10.5729 4.24537 10.5513 3.91171C10.5298 3.57805 10.343 3.27722 10.0534 3.11004L9.55342 3.97607ZM3.88515 18.7938L2.9692 18.3925L4.69066 19.3864L3.88515 18.7938ZM3.68808 7.80437L4.1313 8.70078L3.68808 7.80437ZM15.2942 5.36603L14.9609 5.94338L16.6929 6.94338L17.0263 6.36603L15.2942 5.36603ZM14.9609 5.94338L14.3835 5.61004L13.3835 7.34209L13.9609 7.67543L14.9609 5.94338ZM12.8918 6.34762L12.3352 10.6451L14.3186 10.902L14.8753 6.60452L12.8918 6.34762ZM12.329 10.8379L12.5029 13.5341L14.4987 13.4054L14.3248 10.7091L12.329 10.8379ZM12.5029 13.5341L12.3209 13.8493L14.053 14.8493L14.2349 14.5341L12.5029 13.5341ZM12.3209 13.8493L8.85684 11.8493L7.85684 13.5813L11.3209 15.5813L12.3209 13.8493ZM7.41346 11.0159L3.94936 9.01592L2.94936 10.748L6.41346 12.748L7.41346 11.0159ZM3.94936 9.01592L4.1313 8.70078L2.39925 7.70078L2.21731 8.01592L3.94936 9.01592ZM4.1313 8.70078L6.55327 7.50325L5.66682 5.71043L3.24485 6.90796L4.1313 8.70078ZM6.71714 7.40146L10.1605 4.77069L8.94632 3.18144L5.50294 5.81221L6.71714 7.40146ZM10.0534 3.11004L9.47607 2.77671L8.47607 4.50876L9.05342 4.84209L10.0534 3.11004ZM9.47607 2.77671L9.8094 2.19936L8.07735 1.19936L7.74402 1.77671L9.47607 2.77671ZM9.8094 2.19936L15.2942 5.36603L16.2942 3.63397L10.8094 0.467308L9.8094 2.19936ZM7.55132 12.1227L3.07964 18.2012L4.69066 19.3864L9.16235 13.3079L7.55132 12.1227ZM4.80109 19.1951L7.8294 12.2832L5.99752 11.4806L2.9692 18.3925L4.80109 19.1951ZM9.8094 2.19936L9.8094 2.19936L10.8094 0.467308C9.85282 -0.0849771 8.62963 0.242775 8.07735 1.19936L9.8094 2.19936ZM4.1313 8.70078L3.24485 6.90796C2.8909 7.08297 2.59668 7.35883 2.39925 7.70078L4.1313 8.70078ZM3.94936 9.01592L3.94936 9.01592L2.21731 8.01592C1.66502 8.9725 1.99277 10.1957 2.94936 10.748L3.94936 9.01592ZM12.5029 13.5341L14.2349 14.5341C14.4324 14.1922 14.5241 13.7994 14.4987 13.4054L12.5029 13.5341ZM9.47607 2.77671L9.47607 2.77671L7.74402 1.77671C7.19173 2.73329 7.51948 3.95647 8.47607 4.50876L9.47607 2.77671ZM14.9609 5.94338L14.9609 5.94338L13.9609 7.67543C14.9175 8.22771 16.1407 7.89996 16.6929 6.94338L14.9609 5.94338ZM12.3209 13.8493L12.3209 13.8493L11.3209 15.5813C12.2775 16.1336 13.5007 15.8058 14.053 14.8493L12.3209 13.8493ZM17.0263 6.36603C17.5786 5.40944 17.2508 4.18626 16.2942 3.63397L15.2942 5.36603L15.2942 5.36603L17.0263 6.36603Z" fill="#5E5E5E" mask="url(#path-1-inside-1_5998_3504)"/>
</g>
<defs>
<clipPath id="clip0_5998_3504">
<rect width="20" height="20" fill="white"/>
</clipPath>
</defs>
</svg>
