<svg width="16" height="16" viewBox="0 0 16 16" fill="none" xmlns="http://www.w3.org/2000/svg">
<g clip-path="url(#clip0_6091_3137)">
<path d="M15.0011 1.71345H8.64397V0.570592C8.64397 0.49202 8.57969 0.427734 8.50112 0.427734H7.50112C7.42254 0.427734 7.35826 0.49202 7.35826 0.570592V1.71345H1.00112C0.685045 1.71345 0.429688 1.96881 0.429688 2.28488V11.5706C0.429688 11.8867 0.685045 12.142 1.00112 12.142H7.3654V12.7134L4.42254 14.6438C4.4069 14.654 4.39342 14.6671 4.38288 14.6825C4.37234 14.6979 4.36495 14.7152 4.36114 14.7335C4.35732 14.7517 4.35715 14.7706 4.36064 14.7889C4.36413 14.8072 4.37121 14.8247 4.38147 14.8402L4.92254 15.6831V15.6849C4.9654 15.7509 5.05469 15.7688 5.12076 15.7259L8.00112 13.8367L10.8815 15.7259C10.9475 15.7688 11.0368 15.7509 11.0797 15.6849V15.6831L11.6208 14.8402C11.6411 14.8087 11.6482 14.7704 11.6405 14.7336C11.6328 14.6968 11.611 14.6646 11.5797 14.6438L8.64397 12.7188V12.142H15.0011C15.3172 12.142 15.5725 11.8867 15.5725 11.5706V2.28488C15.5725 1.96881 15.3172 1.71345 15.0011 1.71345ZM14.2868 10.8563H1.7154V2.99916H14.2868V10.8563Z" fill="#5E5E5E"/>
<path d="M11.555 5.68359C11.957 5.68359 12.275 5.77359 12.515 5.95359C12.761 6.14559 12.917 6.43359 12.977 6.82359H12.299C12.257 6.62559 12.173 6.48159 12.053 6.38559C11.927 6.28959 11.759 6.24159 11.555 6.24159C11.303 6.24159 11.105 6.33159 10.961 6.52359C10.817 6.70959 10.745 6.97359 10.745 7.30959C10.745 7.65159 10.811 7.92159 10.955 8.11359C11.087 8.29959 11.285 8.39559 11.549 8.39559C12.005 8.39559 12.257 8.16759 12.311 7.71759H12.989C12.917 8.13759 12.755 8.44959 12.509 8.65359C12.269 8.85159 11.945 8.95359 11.543 8.95359C11.063 8.95359 10.691 8.79759 10.427 8.48559C10.169 8.18559 10.043 7.79559 10.043 7.31559C10.043 6.84759 10.169 6.46359 10.421 6.16959C10.691 5.84559 11.069 5.68359 11.555 5.68359Z" fill="#5E5E5E"/>
<path d="M6.55469 4.5H7.23869V6.192C7.49069 5.85 7.80269 5.682 8.16269 5.682C8.60669 5.682 8.95469 5.844 9.21269 6.168C9.44669 6.468 9.56669 6.846 9.56669 7.302C9.56669 7.776 9.44669 8.166 9.20669 8.466C8.94269 8.79 8.58269 8.952 8.12669 8.952C7.71869 8.952 7.40669 8.814 7.19069 8.538V8.868H6.55469V4.5ZM8.00069 6.234C7.77869 6.234 7.59869 6.324 7.45469 6.504C7.29269 6.696 7.21469 6.96 7.21469 7.29V7.338C7.21469 7.638 7.27469 7.89 7.40669 8.082C7.55069 8.292 7.75469 8.4 8.02469 8.4C8.32469 8.4 8.54669 8.292 8.69069 8.076C8.80469 7.896 8.86469 7.638 8.86469 7.302C8.86469 6.966 8.79869 6.714 8.67869 6.54C8.53469 6.336 8.30669 6.234 8.00069 6.234Z" fill="#5E5E5E"/>
<path d="M4.53 5.68359C4.986 5.68359 5.328 5.79759 5.544 6.02559C5.736 6.22359 5.832 6.51159 5.832 6.88959V8.86959H5.196V8.46159C5.076 8.61759 4.926 8.73159 4.752 8.81559C4.554 8.90559 4.32 8.95359 4.05 8.95359C3.726 8.95359 3.474 8.86959 3.288 8.70759C3.096 8.53959 3 8.32959 3 8.07159C3 7.72359 3.132 7.45359 3.408 7.26759C3.66 7.08759 4.014 6.99159 4.47 6.97959L5.148 6.96159V6.84159C5.148 6.43359 4.926 6.23559 4.482 6.23559C4.29 6.23559 4.14 6.26559 4.026 6.33759C3.894 6.41559 3.804 6.53559 3.768 6.69759L3.09 6.64359C3.156 6.30159 3.324 6.04959 3.594 5.89359C3.822 5.74959 4.134 5.68359 4.53 5.68359ZM5.148 7.45359L4.518 7.47159C3.972 7.48359 3.702 7.67559 3.702 8.04759C3.702 8.15559 3.744 8.24559 3.84 8.31759C3.936 8.38959 4.056 8.43159 4.206 8.43159C4.47 8.43159 4.692 8.35359 4.872 8.20359C5.052 8.04759 5.148 7.84959 5.148 7.60959V7.45359Z" fill="#5E5E5E"/>
</g>
<defs>
<clipPath id="clip0_6091_3137">
<rect width="16" height="16" fill="white"/>
</clipPath>
</defs>
</svg>
