<svg width="24" height="24" viewBox="0 0 24 24" fill="none" xmlns="http://www.w3.org/2000/svg">
<path d="M21.1757 6.01607L15.4114 0.251786C15.2507 0.0910715 15.0337 0 14.806 0H3.42746C2.95335 0 2.57031 0.383036 2.57031 0.857143V23.1429C2.57031 23.617 2.95335 24 3.42746 24H20.5703C21.0444 24 21.4275 23.617 21.4275 23.1429V6.62411C21.4275 6.39643 21.3364 6.17679 21.1757 6.01607ZM14.4096 1.97679L19.4507 7.01786H14.4096V1.97679ZM19.4989 22.0714H4.49888V1.92857H12.5882V7.71429C12.5882 8.01265 12.7067 8.2988 12.9177 8.50978C13.1287 8.72076 13.4148 8.83929 13.7132 8.83929H19.4989V22.0714Z" fill="#0A4DFE"/>
</svg>
