<svg width="17" height="16" viewBox="0 0 17 16" fill="none" xmlns="http://www.w3.org/2000/svg">
<path d="M5.78348 2.14314H5.64062C5.7192 2.14314 5.78348 2.07885 5.78348 2.00028V2.14314H11.2121V2.00028C11.2121 2.07885 11.2763 2.14314 11.3549 2.14314H11.2121V3.42885H12.4978V2.00028C12.4978 1.36992 11.9853 0.857422 11.3549 0.857422H5.64062C5.01027 0.857422 4.49777 1.36992 4.49777 2.00028V3.42885H5.78348V2.14314ZM14.7835 3.42885H2.21205C1.89598 3.42885 1.64062 3.68421 1.64062 4.00028V4.57171C1.64062 4.65028 1.70491 4.71456 1.78348 4.71456H2.86205L3.30313 14.0539C3.3317 14.6628 3.83527 15.1431 4.4442 15.1431H12.5513C13.1621 15.1431 13.6638 14.6646 13.6924 14.0539L14.1335 4.71456H15.2121C15.2906 4.71456 15.3549 4.65028 15.3549 4.57171V4.00028C15.3549 3.68421 15.0996 3.42885 14.7835 3.42885ZM12.4138 13.8574H4.5817L4.14955 4.71456H12.846L12.4138 13.8574Z" fill="#F3F4F9"/>
</svg>
