<svg width="48" height="48" viewBox="0 0 48 48" fill="none" xmlns="http://www.w3.org/2000/svg">
<rect x="0.5" y="0.5" width="47" height="47" rx="7.5" fill="#C2C2C2" fill-opacity="0.3" stroke="#C2C2C2" stroke-dasharray="2 2"/>
<path fill-rule="evenodd" clip-rule="evenodd" d="M23.0158 26.5795L25.0998 23.9223C25.1201 23.8967 25.1459 23.8759 25.1754 23.8617C25.2049 23.8475 25.2371 23.8401 25.2699 23.8401C25.3026 23.8401 25.3349 23.8475 25.3643 23.8617C25.3938 23.8759 25.4196 23.8967 25.44 23.9223L29.0962 28.583C29.206 28.7223 29.1069 28.9286 28.9275 28.9286H19.073C19.0329 28.9287 18.9935 28.9175 18.9595 28.8962C18.9255 28.875 18.8981 28.8447 18.8805 28.8086C18.8629 28.7726 18.8558 28.7323 18.86 28.6924C18.8642 28.6525 18.8795 28.6146 18.9042 28.583L21.5775 25.1759C21.5975 25.1503 21.6231 25.1296 21.6523 25.1153C21.6816 25.1011 21.7137 25.0937 21.7462 25.0937C21.7787 25.0937 21.8108 25.1011 21.8401 25.1153C21.8693 25.1296 21.8949 25.1503 21.915 25.1759L23.0158 26.5795ZM20.2413 22.8826C20.0403 22.6817 19.9275 22.4092 19.9275 22.125C19.9275 21.8408 20.0403 21.5683 20.2413 21.3674C20.4422 21.1665 20.7147 21.0536 20.9989 21.0536C21.283 21.0536 21.5556 21.1665 21.7565 21.3674C21.9574 21.5683 22.0703 21.8408 22.0703 22.125C22.0703 22.4092 21.9574 22.6817 21.7565 22.8826C21.5556 23.0835 21.283 23.1964 20.9989 23.1964C20.7147 23.1964 20.4422 23.0835 20.2413 22.8826ZM27.4114 12.2518L33.1757 18.0161C33.3364 18.1768 33.4275 18.3964 33.4275 18.6241V27.0229C32.7531 27.0773 32.1057 27.2273 31.4989 27.4593V20.8393H25.7132C25.4148 20.8393 25.1287 20.7208 24.9177 20.5098C24.7067 20.2988 24.5882 20.0127 24.5882 19.7143V13.9286H16.4989V34.0714H26.9984C27.0051 34.741 27.1058 35.388 27.2879 36H15.4275C14.9533 36 14.5703 35.617 14.5703 35.1429V12.8571C14.5703 12.383 14.9533 12 15.4275 12H26.806C27.0337 12 27.2507 12.0911 27.4114 12.2518ZM26.4096 19.0179H31.4507L26.4096 13.9768V19.0179Z" fill="#C2C2C2"/>
<g clip-path="url(#clip0_6807_4831)">
<path d="M34 28C30.6866 28 28 30.6866 28 34C28 37.3134 30.6866 40 34 40C37.3134 40 40 37.3134 40 34C40 30.6866 37.3134 28 34 28ZM33.5714 31.1071C33.5714 31.0482 33.6196 31 33.6786 31H34.3214C34.3804 31 34.4286 31.0482 34.4286 31.1071V34.75C34.4286 34.8089 34.3804 34.8571 34.3214 34.8571H33.6786C33.6196 34.8571 33.5714 34.8089 33.5714 34.75V31.1071ZM34 37C33.8318 36.9966 33.6716 36.9273 33.5538 36.8071C33.4361 36.687 33.3701 36.5254 33.3701 36.3571C33.3701 36.1889 33.4361 36.0273 33.5538 35.9071C33.6716 35.787 33.8318 35.7177 34 35.7143C34.1682 35.7177 34.3284 35.787 34.4462 35.9071C34.5639 36.0273 34.6299 36.1889 34.6299 36.3571C34.6299 36.5254 34.5639 36.687 34.4462 36.8071C34.3284 36.9273 34.1682 36.9966 34 37Z" fill="#F93943"/>
</g>
<defs>
<clipPath id="clip0_6807_4831">
<rect width="12" height="12" fill="white" transform="translate(28 28)"/>
</clipPath>
</defs>
</svg>
