<svg width="20" height="20" viewBox="0 0 20 20" fill="none" xmlns="http://www.w3.org/2000/svg">
<rect width="20" height="20" rx="4" fill="#EF454E" fill-opacity="0.1"/>
<path d="M14.5878 7.00804L11.7057 4.12589C11.6253 4.04554 11.5169 4 11.403 4H5.71373C5.47667 4 5.28516 4.19152 5.28516 4.42857V15.5714C5.28516 15.8085 5.47667 16 5.71373 16H14.2852C14.5222 16 14.7137 15.8085 14.7137 15.5714V7.31205C14.7137 7.19821 14.6682 7.08839 14.5878 7.00804ZM13.7253 7.50893H11.2048V4.98839L13.7253 7.50893ZM13.7494 15.0357H6.24944V4.96429H10.2941V7.85714C10.2941 8.00633 10.3533 8.1494 10.4588 8.25489C10.5643 8.36038 10.7074 8.41964 10.8566 8.41964H13.7494V15.0357Z" fill="#EF454E"/>
<path d="M8 9.5H10" stroke="#EF454E" stroke-linecap="round"/>
<path d="M8 12.5H12" stroke="#EF454E" stroke-linecap="round"/>
</svg>
