<svg width="20" height="20" viewBox="0 0 20 20" fill="none" xmlns="http://www.w3.org/2000/svg">
<path d="M6.21875 13.6838L7.00917 16.1151C7.03168 16.1844 7.07197 16.2466 7.12602 16.2954C7.18007 16.3443 7.246 16.3782 7.31721 16.3936C7.38843 16.409 7.46245 16.4055 7.53188 16.3834C7.60132 16.3613 7.66374 16.3213 7.71292 16.2676L11.2371 12.4238" stroke="#5E5E5E" stroke-linecap="round" stroke-linejoin="round"/>
<path d="M15.7845 10.4313C15.7845 10.4313 15.3428 12.7717 12.7307 12.7717C10.1186 12.7717 8.4724 9.54883 6.5049 9.54883C4.18073 9.54883 3.57031 11.4997 3.57031 12.7717C3.57031 13.8576 4.14698 14.2988 4.91031 14.2988C5.67365 14.2988 7.09865 13.0092 7.70948 12.3476H11.0845" stroke="#5E5E5E" stroke-linecap="round" stroke-linejoin="round"/>
<path d="M6.50625 9.54945C6.50625 8.42987 5.60708 7.56445 4.19917 7.56445C2.79125 7.56445 1.875 8.26029 1.875 10.2278C1.875 12.1953 3.57625 12.5853 3.57625 12.5853" stroke="#5E5E5E" stroke-linecap="round" stroke-linejoin="round"/>
<path d="M3.02442 7.79222C2.49317 6.39139 3.80942 5.02014 5.84525 5.02014C8.93275 5.02014 9.21233 10.0326 12.1727 10.0326C14.6327 10.0326 16.2823 6.84222 15.1586 5.00347C13.6657 2.56014 11.1694 3.0093 10.1173 4.01014" stroke="#5E5E5E" stroke-linecap="round" stroke-linejoin="round"/>
<path d="M5.84375 5.02072C6.40375 3.13739 9.21125 3.07822 10.3225 4.18947C11.4337 5.30072 11.3742 6.88655 9.815 8.62364M13.7671 9.5503C14.9621 11.0003 17.8996 10.7986 18.1117 7.92322C18.3238 5.0478 15.8062 5.09405 15.3033 5.28655" stroke="#5E5E5E" stroke-linecap="round" stroke-linejoin="round"/>
</svg>
