<svg width="16" height="16" viewBox="0 0 16 16" fill="none" xmlns="http://www.w3.org/2000/svg">
<g clip-path="url(#clip0_6091_3127)">
<path d="M8 0C3.58214 0 0 3.58214 0 8C0 12.4179 3.58214 16 8 16C12.4179 16 16 12.4179 16 8C16 3.58214 12.4179 0 8 0ZM8 14.6429C4.33214 14.6429 1.35714 11.6679 1.35714 8C1.35714 4.33214 4.33214 1.35714 8 1.35714C11.6679 1.35714 14.6429 4.33214 14.6429 8C14.6429 11.6679 11.6679 14.6429 8 14.6429Z" fill="#5E5E5E"/>
<path d="M9.99453 4.51194C9.45882 4.0423 8.75167 3.78516 8.00167 3.78516C7.25167 3.78516 6.54453 4.04409 6.00882 4.51194C5.45167 4.99944 5.14453 5.6548 5.14453 6.35659V6.4923C5.14453 6.57087 5.20882 6.63516 5.28739 6.63516H6.14453C6.2231 6.63516 6.28739 6.57087 6.28739 6.4923V6.35659C6.28739 5.56908 7.05703 4.92801 8.00167 4.92801C8.94632 4.92801 9.71596 5.56908 9.71596 6.35659C9.71596 6.91194 9.3231 7.42087 8.71417 7.6548C8.3356 7.79944 8.01417 8.05301 7.78382 8.38516C7.54989 8.72444 7.42846 9.13159 7.42846 9.54409V9.92801C7.42846 10.0066 7.49275 10.0709 7.57132 10.0709H8.42846C8.50703 10.0709 8.57132 10.0066 8.57132 9.92801V9.52266C8.57224 9.3493 8.62538 9.18025 8.72381 9.03754C8.82224 8.89484 8.96138 8.78511 9.1231 8.72266C10.1767 8.3173 10.857 7.38873 10.857 6.35659C10.8588 5.6548 10.5517 4.99944 9.99453 4.51194ZM7.28739 11.928C7.28739 12.1175 7.36264 12.2991 7.4966 12.4331C7.63055 12.567 7.81223 12.6423 8.00167 12.6423C8.19111 12.6423 8.3728 12.567 8.50675 12.4331C8.64071 12.2991 8.71596 12.1175 8.71596 11.928C8.71596 11.7386 8.64071 11.5569 8.50675 11.4229C8.3728 11.289 8.19111 11.2137 8.00167 11.2137C7.81223 11.2137 7.63055 11.289 7.4966 11.4229C7.36264 11.5569 7.28739 11.7386 7.28739 11.928Z" fill="#5E5E5E"/>
</g>
<defs>
<clipPath id="clip0_6091_3127">
<rect width="16" height="16" fill="white"/>
</clipPath>
</defs>
</svg>
