<svg width="48" height="48" viewBox="0 0 48 48" fill="none" xmlns="http://www.w3.org/2000/svg">
    <rect x="0.5" y="0.5" width="47" height="47" rx="7.5" fill="#E6EDFF" stroke="#0A4DFE" stroke-dasharray="2 2"/>
    <path d="M23.9261 23.4325C23.9074 23.3977 23.8886 23.3816 23.8672 23.3789C23.7895 23.4673 23.8083 24.2227 23.9395 24.7557C24.0467 24.3914 24.0654 23.6709 23.9261 23.4325ZM23.8833 26.6602C23.677 27.1959 23.3797 27.9271 23.0234 28.5727C23.1306 28.5298 23.2404 28.4843 23.3529 28.4387C23.8243 28.2459 24.352 28.0289 24.9306 27.8977C24.5315 27.5816 24.1699 27.1557 23.8833 26.6602Z" fill="#E6EDFF"/>
    <path d="M20.7734 30.6695C20.9261 30.5516 21.2074 30.2811 21.5797 29.74C21.3038 29.9918 20.9529 30.34 20.7734 30.6695ZM28.0297 28.4463L28.035 28.4382H28.0404C28.0565 28.4275 28.0538 28.4195 28.0511 28.4141C28.0484 28.4114 27.9306 28.165 26.8431 28.2159C27.7886 28.5882 28.0083 28.4597 28.0297 28.4463Z" fill="#E6EDFF"/>
    <path d="M33.1757 18.0161L27.4114 12.2518C27.2507 12.0911 27.0337 12 26.806 12H15.4275C14.9533 12 14.5703 12.383 14.5703 12.8571V35.1429C14.5703 35.617 14.9533 36 15.4275 36H32.5703C33.0444 36 33.4275 35.617 33.4275 35.1429V18.6241C33.4275 18.3964 33.3364 18.1768 33.1757 18.0161ZM26.4096 13.9768L31.4507 19.0179H26.4096V13.9768ZM31.4989 34.0714H16.4989V13.9286H24.5882V19.7143C24.5882 20.0127 24.7067 20.2988 24.9177 20.5098C25.1287 20.7208 25.4148 20.8393 25.7132 20.8393H31.4989V34.0714Z" fill="#0A4DFE"/>
    <path d="M24.6402 25.9631C24.6187 25.9176 24.6 25.8747 24.5812 25.8319C24.5785 25.8238 24.5732 25.8131 24.5705 25.8051L24.5223 25.6846C24.5196 25.6792 24.5196 25.6765 24.5169 25.6712L24.5196 25.6631L24.525 25.6337C24.6321 25.197 24.7553 24.6881 24.7768 24.1765V24.1578C24.7848 23.9274 24.7714 23.697 24.7232 23.472C24.6214 22.9015 24.2009 22.6792 23.8419 22.6631C23.5393 22.6497 23.258 22.7703 23.0893 22.9685C23.0866 22.9712 23.0866 22.9738 23.0839 22.9738C23.0785 22.9792 23.0732 22.9845 23.0705 22.9899C23.0143 23.0622 22.9714 23.1453 22.9473 23.2337C22.7705 23.8765 22.9285 24.7551 23.2178 25.8747C22.8535 26.7426 22.2723 28.0015 21.8464 28.7515V28.7542C21.1044 29.1372 20.1294 29.7131 19.875 30.439C19.875 30.4417 19.8723 30.4444 19.8723 30.4471C19.8669 30.4658 19.8589 30.4846 19.8535 30.5033C19.8509 30.5087 19.8509 30.514 19.8482 30.5194C19.8428 30.5435 19.8348 30.5676 19.8321 30.5917C19.808 30.6988 19.8214 30.8274 19.8669 30.956C19.883 31.0042 19.9018 31.0497 19.9259 31.0953C20.025 31.2828 20.183 31.4274 20.3678 31.4971C20.4482 31.5265 20.5446 31.5506 20.6571 31.5506C21.1285 31.5506 21.8919 31.1703 22.9098 29.4238C23.0652 29.3729 23.2259 29.3194 23.3812 29.2658C24.1098 29.0194 24.8652 28.7622 25.5482 28.6471C26.3035 29.0515 27.1634 29.3113 27.7473 29.3113C28.3259 29.3113 28.5535 28.9685 28.6393 28.7622C28.7893 28.4006 28.7169 27.9453 28.4732 27.7015C28.4035 27.6319 28.3125 27.5729 28.2027 27.5247C28.2 27.522 28.1946 27.5221 28.1919 27.5194C28.1785 27.514 28.1625 27.5087 28.1491 27.5006C28.1384 27.4953 28.1277 27.4926 28.1169 27.4872C28.1116 27.4846 28.1089 27.4845 28.1035 27.4819C27.6696 27.3265 26.9866 27.3024 26.0598 27.4069L25.9178 27.4229C25.7839 27.3426 25.6607 27.2542 25.5455 27.1604C25.1652 26.8578 24.8732 26.4694 24.6402 25.9631ZM20.7723 30.6694C20.9518 30.3399 21.3027 29.9917 21.5785 29.7399C21.2062 30.281 20.925 30.5515 20.7723 30.6694ZM23.866 23.3783C23.8875 23.381 23.9062 23.397 23.925 23.4319C24.0643 23.6703 24.0455 24.3908 23.9384 24.7551C23.8071 24.222 23.7884 23.4667 23.866 23.3783ZM23.3518 28.4381C23.2393 28.4837 23.1294 28.5292 23.0223 28.5721C23.3785 27.9265 23.6759 27.1953 23.8821 26.6595C24.1687 27.1551 24.5303 27.581 24.9294 27.897C24.3509 28.0283 23.8232 28.2453 23.3518 28.4381ZM28.05 28.414C28.0527 28.4194 28.0553 28.4274 28.0393 28.4381H28.0339L28.0285 28.4462C28.0071 28.4596 27.7875 28.5881 26.8419 28.2158C27.9294 28.1649 28.0473 28.4113 28.05 28.414Z" fill="#0A4DFE"/>
</svg>
