<svg width="48" height="48" viewBox="0 0 48 48" fill="none" xmlns="http://www.w3.org/2000/svg">
<rect x="0.5" y="0.5" width="47" height="47" rx="7.5" fill="#C2C2C2" fill-opacity="0.3" stroke="#C2C2C2" stroke-dasharray="2 2"/>
<path d="M24.6402 25.9631C24.6187 25.9176 24.6 25.8747 24.5812 25.8319C24.5785 25.8238 24.5732 25.8131 24.5705 25.8051L24.5223 25.6846C24.5196 25.6792 24.5196 25.6765 24.5169 25.6712L24.5196 25.6631L24.525 25.6337C24.6321 25.197 24.7553 24.6881 24.7768 24.1765V24.1578C24.7848 23.9274 24.7714 23.697 24.7232 23.472C24.6214 22.9015 24.2009 22.6792 23.8419 22.6631C23.5393 22.6497 23.258 22.7703 23.0893 22.9685C23.0866 22.9712 23.0866 22.9738 23.0839 22.9738C23.0785 22.9792 23.0732 22.9845 23.0705 22.9899C23.0143 23.0622 22.9714 23.1453 22.9473 23.2337C22.7705 23.8765 22.9285 24.7551 23.2178 25.8747C22.8535 26.7426 22.2723 28.0015 21.8464 28.7515V28.7542C21.1044 29.1372 20.1294 29.7131 19.875 30.439C19.875 30.4417 19.8723 30.4444 19.8723 30.4471C19.8669 30.4658 19.8589 30.4846 19.8535 30.5033C19.8509 30.5087 19.8509 30.514 19.8482 30.5194C19.8428 30.5435 19.8348 30.5676 19.8321 30.5917C19.808 30.6988 19.8214 30.8274 19.8669 30.956C19.883 31.0042 19.9018 31.0497 19.9259 31.0953C20.025 31.2828 20.183 31.4274 20.3678 31.4971C20.4482 31.5265 20.5446 31.5506 20.6571 31.5506C21.1285 31.5506 21.8919 31.1703 22.9098 29.4238C23.0652 29.3729 23.2259 29.3194 23.3812 29.2658C24.1098 29.0194 24.8652 28.7622 25.5482 28.6471C26.3035 29.0515 27.1634 29.3113 27.7473 29.3113C28.3259 29.3113 28.5535 28.9685 28.6393 28.7622C28.7893 28.4006 28.7169 27.9453 28.4732 27.7015C28.4035 27.6319 28.3125 27.5729 28.2027 27.5247C28.2 27.522 28.1946 27.5221 28.1919 27.5194C28.1785 27.514 28.1625 27.5087 28.1491 27.5006C28.1384 27.4953 28.1277 27.4926 28.1169 27.4872C28.1116 27.4846 28.1089 27.4845 28.1035 27.4819C27.6696 27.3265 26.9866 27.3024 26.0598 27.4069L25.9178 27.4229C25.7839 27.3426 25.6607 27.2542 25.5455 27.1604C25.1652 26.8578 24.8732 26.4694 24.6402 25.9631ZM20.7723 30.6694C20.9518 30.3399 21.3027 29.9917 21.5785 29.7399C21.2062 30.281 20.925 30.5515 20.7723 30.6694ZM23.866 23.3783C23.8875 23.381 23.9062 23.397 23.925 23.4319C24.0643 23.6703 24.0455 24.3908 23.9384 24.7551C23.8071 24.222 23.7884 23.4667 23.866 23.3783ZM23.3518 28.4381C23.2393 28.4837 23.1294 28.5292 23.0223 28.5721C23.3785 27.9265 23.6759 27.1953 23.8821 26.6595C24.1687 27.1551 24.5303 27.581 24.9294 27.897C24.3509 28.0283 23.8232 28.2453 23.3518 28.4381ZM28.05 28.414C28.0527 28.4194 28.0553 28.4274 28.0393 28.4381H28.0339L28.0285 28.4462C28.0071 28.4596 27.7875 28.5881 26.8419 28.2158C27.9294 28.1649 28.0473 28.4113 28.05 28.414Z" fill="#C2C2C2"/>
<path fill-rule="evenodd" clip-rule="evenodd" d="M27.4114 12.2518L33.1757 18.0161C33.3364 18.1768 33.4275 18.3964 33.4275 18.6241V26.3725C32.7474 26.5748 32.1011 26.8553 31.4989 27.2036V20.8393H25.7132C25.4148 20.8393 25.1287 20.7208 24.9177 20.5098C24.7067 20.2988 24.5882 20.0127 24.5882 19.7143V13.9286H16.4989V34.0714H27.0454C27.0141 34.3767 26.998 34.6865 26.998 35C26.998 35.338 27.0167 35.6717 27.053 36H15.4275C14.9533 36 14.5703 35.617 14.5703 35.1429V12.8571C14.5703 12.383 14.9533 12 15.4275 12H26.806C27.0337 12 27.2507 12.0911 27.4114 12.2518ZM31.4507 19.0179L26.4096 13.9768V19.0179H31.4507Z" fill="#C2C2C2"/>
<g clip-path="url(#clip0_6807_4822)">
<path d="M34 28C30.6866 28 28 30.6866 28 34C28 37.3134 30.6866 40 34 40C37.3134 40 40 37.3134 40 34C40 30.6866 37.3134 28 34 28ZM33.5714 31.1071C33.5714 31.0482 33.6196 31 33.6786 31H34.3214C34.3804 31 34.4286 31.0482 34.4286 31.1071V34.75C34.4286 34.8089 34.3804 34.8571 34.3214 34.8571H33.6786C33.6196 34.8571 33.5714 34.8089 33.5714 34.75V31.1071ZM34 37C33.8318 36.9966 33.6716 36.9273 33.5538 36.8071C33.4361 36.687 33.3701 36.5254 33.3701 36.3571C33.3701 36.1889 33.4361 36.0273 33.5538 35.9071C33.6716 35.787 33.8318 35.7177 34 35.7143C34.1682 35.7177 34.3284 35.787 34.4462 35.9071C34.5639 36.0273 34.6299 36.1889 34.6299 36.3571C34.6299 36.5254 34.5639 36.687 34.4462 36.8071C34.3284 36.9273 34.1682 36.9966 34 37Z" fill="#F93943"/>
</g>
<defs>
<clipPath id="clip0_6807_4822">
<rect width="12" height="12" fill="white" transform="translate(28 28)"/>
</clipPath>
</defs>
</svg>
