<svg width="20" height="20" viewBox="0 0 20 20" fill="none" xmlns="http://www.w3.org/2000/svg">
<g clip-path="url(#clip0_5998_3500)">
<path d="M13.3346 2.5C13.7949 2.5 14.168 2.8731 14.168 3.33333C14.168 3.79357 13.7949 4.16667 13.3346 4.16667H12.5013L14.168 9.16667L15.6667 11.4147C15.7762 11.579 15.8346 11.772 15.8346 11.9694V12.3333C15.8346 12.8856 15.3869 13.3333 14.8346 13.3333H10.8346L10.0013 20.8333L9.16797 13.3333H5.16797C4.61568 13.3333 4.16797 12.8856 4.16797 12.3333V11.9694C4.16797 11.772 4.22641 11.579 4.33592 11.4147L5.83464 9.16667L7.5013 4.16667H6.66797C6.20773 4.16667 5.83464 3.79357 5.83464 3.33333C5.83464 2.8731 6.20773 2.5 6.66797 2.5H13.3346Z" fill="#0A4DFE"/>
</g>
<defs>
<clipPath id="clip0_5998_3500">
<rect width="20" height="20" fill="white"/>
</clipPath>
</defs>
</svg>
