<svg width="20" height="20" viewBox="0 0 20 20" fill="none" xmlns="http://www.w3.org/2000/svg">
<rect width="20" height="20" rx="4" fill="#00A442" fill-opacity="0.1"/>
<g clip-path="url(#clip0_6807_4638)">
<path d="M15.5714 5.28516H4.42857C4.19152 5.28516 4 5.47667 4 5.71373V14.2852C4 14.5222 4.19152 14.7137 4.42857 14.7137H15.5714C15.8085 14.7137 16 14.5222 16 14.2852V5.71373C16 5.47667 15.8085 5.28516 15.5714 5.28516ZM15.0357 13.7494H4.96429V13.2151L6.8192 11.0146L8.82946 13.3985L11.9567 9.69141L15.0357 13.3423V13.7494ZM15.0357 12.011L12.0384 8.45658C11.9955 8.40569 11.9179 8.40569 11.875 8.45658L8.82946 12.0673L6.90089 9.78114C6.85804 9.73025 6.78036 9.73025 6.7375 9.78114L4.96429 11.8838V6.24944H15.0357V12.011ZM7.21429 9.24944C7.36906 9.24944 7.52231 9.21896 7.66531 9.15973C7.8083 9.1005 7.93822 9.01369 8.04766 8.90425C8.1571 8.79481 8.24392 8.66488 8.30314 8.52189C8.36237 8.3789 8.39286 8.22564 8.39286 8.07087C8.39286 7.9161 8.36237 7.76284 8.30314 7.61985C8.24392 7.47686 8.1571 7.34694 8.04766 7.23749C7.93822 7.12805 7.8083 7.04124 7.66531 6.98201C7.52231 6.92278 7.36906 6.8923 7.21429 6.8923C6.90171 6.8923 6.60193 7.01647 6.38091 7.23749C6.15988 7.45852 6.03571 7.75829 6.03571 8.07087C6.03571 8.38345 6.15988 8.68322 6.38091 8.90425C6.60193 9.12527 6.90171 9.24944 7.21429 9.24944ZM7.21429 7.69587C7.42188 7.69587 7.58929 7.86328 7.58929 8.07087C7.58929 8.27846 7.42188 8.44587 7.21429 8.44587C7.0067 8.44587 6.83929 8.27846 6.83929 8.07087C6.83929 7.86328 7.0067 7.69587 7.21429 7.69587Z" fill="#00A442"/>
</g>
<defs>
<clipPath id="clip0_6807_4638">
<rect width="12" height="12" fill="white" transform="translate(4 4)"/>
</clipPath>
</defs>
</svg>
