<svg width="16" height="16" viewBox="0 0 16 16" fill="none" xmlns="http://www.w3.org/2000/svg">
<path d="M13.5358 1.46415C11.5849 -0.488051 8.40799 -0.488051 6.45918 1.46415L1.05387 6.86899C1.01866 6.90422 1.00002 6.95188 1.00002 7.00162C1.00002 7.05136 1.01866 7.09902 1.05387 7.13425L1.81806 7.89897C1.853 7.93377 1.90028 7.95331 1.94957 7.95331C1.99887 7.95331 2.04615 7.93377 2.08108 7.89897L7.4864 2.49414C8.1574 1.82268 9.05 1.45379 9.99852 1.45379C10.947 1.45379 11.8396 1.82268 12.5086 2.49414C13.1796 3.1656 13.5482 4.0588 13.5482 5.00589C13.5482 5.95505 13.1796 6.84619 12.5086 7.51765L6.99971 13.0282L6.10711 13.9214C5.2725 14.7566 3.91599 14.7566 3.08138 13.9214C2.67753 13.5173 2.45593 12.9805 2.45593 12.4085C2.45593 11.8365 2.67753 11.2998 3.08138 10.8957L8.54675 5.42866C8.68551 5.29188 8.86776 5.21521 9.06243 5.21521H9.0645C9.25918 5.21521 9.43935 5.29188 9.57604 5.42866C9.7148 5.56751 9.78935 5.74989 9.78935 5.94469C9.78935 6.13743 9.71272 6.3198 9.57604 6.45658L5.10889 10.9226C5.07368 10.9578 5.05504 11.0055 5.05504 11.0552C5.05504 11.105 5.07368 11.1526 5.10889 11.1879L5.87309 11.9526C5.90802 11.9874 5.9553 12.0069 6.0046 12.0069C6.05389 12.0069 6.10117 11.9874 6.1361 11.9526L10.6012 7.48449C11.0133 7.07208 11.2391 6.52497 11.2391 5.94262C11.2391 5.36027 11.0112 4.81109 10.6012 4.40075C9.75 3.54899 8.36657 3.55106 7.51539 4.40075L6.98522 4.93336L2.05209 9.86775C1.71727 10.2008 1.45187 10.5971 1.27127 11.0336C1.09067 11.4701 0.998472 11.9382 1.00002 12.4106C1.00002 13.3701 1.37487 14.2716 2.05209 14.9493C2.75416 15.6498 3.67368 16 4.59321 16C5.51273 16 6.43226 15.6498 7.13226 14.9493L13.5358 8.54556C14.4781 7.60054 15 6.34259 15 5.00589C15.0021 3.66712 14.4802 2.40917 13.5358 1.46415Z" fill="#5E5E5E"/>
</svg>
