<svg width="16" height="16" viewBox="0 0 16 16" fill="none" xmlns="http://www.w3.org/2000/svg">
<g clip-path="url(#clip0_6091_3124)">
<path d="M13.7148 0.857143H11.7863V0.142857C11.7863 0.0642857 11.722 0 11.6434 0H10.6434C10.5648 0 10.5006 0.0642857 10.5006 0.142857V0.857143H7.78627V0.142857C7.78627 0.0642857 7.72199 0 7.64342 0H6.64342C6.56484 0 6.50056 0.0642857 6.50056 0.142857V0.857143H4.57199C4.25592 0.857143 4.00056 1.1125 4.00056 1.42857V3.57143H2.28627C1.9702 3.57143 1.71484 3.82679 1.71484 4.14286V15.4286C1.71484 15.7446 1.9702 16 2.28627 16H11.4291C11.7452 16 12.0006 15.7446 12.0006 15.4286V13.7143H13.7148C14.0309 13.7143 14.2863 13.4589 14.2863 13.1429V1.42857C14.2863 1.1125 14.0309 0.857143 13.7148 0.857143ZM10.7148 14.7143H3.00056V4.85714H6.89342V7.96429C6.89342 8.35893 7.21306 8.67857 7.6077 8.67857H10.7148V14.7143ZM10.7148 7.53571H8.03627V4.85714H8.03984L10.7148 7.53214V7.53571ZM13.0006 12.4286H12.0006V7L8.57199 3.57143H5.28627V2.14286H6.50056V2.71429C6.50056 2.79286 6.56484 2.85714 6.64342 2.85714H7.64342C7.72199 2.85714 7.78627 2.79286 7.78627 2.71429V2.14286H10.5006V2.71429C10.5006 2.79286 10.5648 2.85714 10.6434 2.85714H11.6434C11.722 2.85714 11.7863 2.79286 11.7863 2.71429V2.14286H13.0006V12.4286Z" fill="#5E5E5E"/>
</g>
<defs>
<clipPath id="clip0_6091_3124">
<rect width="16" height="16" fill="white"/>
</clipPath>
</defs>
</svg>
