<svg width="16" height="16" viewBox="0 0 16 16" fill="none" xmlns="http://www.w3.org/2000/svg">
<g clip-path="url(#clip0_6807_4428)">
<path d="M11.0991 5.19364C11.0991 5.11507 11.0348 5.05078 10.9563 5.05078L9.77768 5.05614L8.00268 7.17221L6.22946 5.05792L5.04911 5.05257C4.97054 5.05257 4.90625 5.11507 4.90625 5.19542C4.90625 5.22935 4.91875 5.2615 4.94018 5.28828L7.26339 8.05614L4.94018 10.8222C4.9186 10.8484 4.90663 10.8811 4.90625 10.9151C4.90625 10.9936 4.97054 11.0579 5.04911 11.0579L6.22946 11.0526L8.00268 8.9365L9.77589 11.0508L10.9545 11.0561C11.033 11.0561 11.0973 10.9936 11.0973 10.9133C11.0973 10.8794 11.0848 10.8472 11.0634 10.8204L8.74375 8.05435L11.067 5.2865C11.0884 5.2615 11.0991 5.22757 11.0991 5.19364Z" fill="#5E5E5E"/>
<path d="M8 0.0175781C3.58214 0.0175781 0 3.59972 0 8.01758C0 12.4354 3.58214 16.0176 8 16.0176C12.4179 16.0176 16 12.4354 16 8.01758C16 3.59972 12.4179 0.0175781 8 0.0175781ZM8 14.6604C4.33214 14.6604 1.35714 11.6854 1.35714 8.01758C1.35714 4.34972 4.33214 1.37472 8 1.37472C11.6679 1.37472 14.6429 4.34972 14.6429 8.01758C14.6429 11.6854 11.6679 14.6604 8 14.6604Z" fill="#5E5E5E"/>
</g>
<defs>
<clipPath id="clip0_6807_4428">
<rect width="16" height="16" fill="white"/>
</clipPath>
</defs>
</svg>
