<svg width="16" height="16" viewBox="0 0 16 16" fill="none" xmlns="http://www.w3.org/2000/svg">
<g clip-path="url(#clip0_6406_3246)">
<path d="M1.35714 2.21456H11.7857V5.14314H13.1429V1.42885C13.1429 1.11278 12.8875 0.857422 12.5714 0.857422H0.571429C0.255357 0.857422 0 1.11278 0 1.42885V14.5717C0 14.8878 0.255357 15.1431 0.571429 15.1431H10.2857V13.786H1.35714V2.21456Z" fill="#0057FF"/>
<path d="M6.25246 3.42773H5.17031C5.1096 3.42773 5.05603 3.46702 5.0346 3.52416L2.76496 10.0956C2.7596 10.1099 2.75781 10.1259 2.75781 10.142C2.75781 10.2206 2.8221 10.2849 2.90067 10.2849H3.8846C3.94531 10.2849 3.99888 10.2456 4.02031 10.1884L4.60424 8.49916H8.10781L6.38996 3.52416C6.37923 3.49623 6.36042 3.47214 6.33592 3.45496C6.31143 3.43778 6.28237 3.4283 6.25246 3.42773ZM6.47388 7.49916H4.9471L5.71138 5.28845L6.47388 7.49916ZM15.5685 8.28488H13.14V6.62416C13.14 6.54559 13.0757 6.48131 12.9971 6.48131H11.9971C11.9185 6.48131 11.8542 6.54559 11.8542 6.62416V8.28488H9.42567C9.18817 8.28488 8.9971 8.47595 8.9971 8.71345V11.8563C8.9971 12.0938 9.18817 12.2849 9.42567 12.2849H11.8542V14.9992C11.8542 15.0777 11.9185 15.142 11.9971 15.142H12.9971C13.0757 15.142 13.14 15.0777 13.14 14.9992V12.2849H15.5685C15.806 12.2849 15.9971 12.0938 15.9971 11.8563V8.71345C15.9971 8.47595 15.806 8.28488 15.5685 8.28488ZM11.8542 10.9992H10.2828V9.57059H11.8542V10.9992ZM14.7114 10.9992H13.14V9.57059H14.7114V10.9992Z" fill="#0057FF"/>
</g>
<defs>
<clipPath id="clip0_6406_3246">
<rect width="16" height="16" fill="white"/>
</clipPath>
</defs>
</svg>
