<svg width="20" height="20" viewBox="0 0 20 20" fill="none" xmlns="http://www.w3.org/2000/svg">
<g clip-path="url(#clip0_5777_3591)">
<path d="M10 20C15.5228 20 20 15.5228 20 10C20 4.47715 15.5228 0 10 0C4.47715 0 0 4.47715 0 10C0 15.5228 4.47715 20 10 20Z" fill="url(#paint0_linear_5777_3591)"/>
<g clip-path="url(#clip1_5777_3591)">
<path fill-rule="evenodd" clip-rule="evenodd" d="M11.3792 12.1083C11.6138 12.3369 11.6296 12.7243 11.4145 12.9736L8.59564 16.2402C8.59554 16.2403 8.59545 16.2404 8.59536 16.2405C8.48802 16.3651 8.35184 16.4576 8.20038 16.5089C8.04879 16.5601 7.88718 16.5683 7.73168 16.5325C7.57619 16.4967 7.43226 16.4182 7.31425 16.3048C7.19627 16.1915 7.10832 16.0473 7.05917 15.8866C7.05915 15.8865 7.05913 15.8865 7.05912 15.8864L6.42683 13.82C6.32841 13.4984 6.49404 13.1528 6.79678 13.0483C7.09951 12.9437 7.42471 13.1197 7.52313 13.4413L8.0267 15.0871L10.5648 12.1458C10.7799 11.8965 11.1445 11.8797 11.3792 12.1083ZM8.15546 15.5079L8.15542 15.5078L8.15546 15.5079Z" fill="white"/>
<path fill-rule="evenodd" clip-rule="evenodd" d="M4.85874 10.7344C5.32035 10.0186 6.08489 9.50391 7.20531 9.50391C7.75785 9.50391 8.24649 9.74419 8.66454 10.0286C9.02027 10.2707 9.37486 10.5812 9.70688 10.8719C9.76102 10.9194 9.81457 10.9662 9.86743 11.0122C10.2992 11.3878 10.7011 11.7147 11.1063 11.937C11.1219 11.9445 11.1371 11.9527 11.1519 11.9615C11.4873 12.1389 11.8257 12.2434 12.186 12.2434C13.0256 12.2434 13.4737 11.8583 13.7293 11.4947C13.8638 11.3033 13.9496 11.1092 14.0014 10.9624C14.027 10.8897 14.0435 10.831 14.053 10.7932C14.0578 10.7743 14.0608 10.7609 14.0623 10.7538C14.0628 10.7515 14.0631 10.7498 14.0633 10.749L14.0633 10.7487C14.1242 10.4187 14.4244 10.2022 14.7359 10.2647C15.0487 10.3274 15.2544 10.6477 15.1954 10.98L14.629 10.8664C15.1954 10.98 15.1953 10.9803 15.1952 10.9807L15.1951 10.9814L15.1948 10.9829L15.1942 10.9866C15.1937 10.9893 15.1931 10.9925 15.1924 10.9961C15.1909 11.0034 15.1891 11.0127 15.1867 11.0237C15.182 11.0458 15.1754 11.0751 15.1664 11.1107C15.1485 11.1817 15.121 11.2783 15.0809 11.3922C15.0011 11.6183 14.868 11.9216 14.6529 12.2275C14.2094 12.8587 13.436 13.4682 12.186 13.4682C11.6564 13.4682 11.1743 13.3241 10.7364 13.1077H8.41506C8.15551 13.3869 7.80743 13.7266 7.44591 14.0213C7.21989 14.2056 6.97603 14.3826 6.73594 14.5162C6.50994 14.642 6.22353 14.7662 5.92964 14.7662C5.51532 14.7662 5.08052 14.637 4.75169 14.2782C4.42394 13.9205 4.28125 13.4219 4.28125 12.8558C4.28125 12.2351 4.41864 11.4169 4.85874 10.7344ZM9.04873 11.8828C9.0208 11.8585 8.99318 11.8343 8.96583 11.8104C8.62929 11.5161 8.3355 11.2592 8.04287 11.0601C7.70599 10.8309 7.43976 10.7287 7.20531 10.7287C6.46639 10.7287 6.05709 11.0431 5.8097 11.4267C5.54081 11.8437 5.43403 12.3952 5.43403 12.8558C5.43403 13.2127 5.52201 13.363 5.57759 13.4237C5.63209 13.4831 5.73329 13.5414 5.92964 13.5414C5.92952 13.5414 5.92955 13.5414 5.92974 13.5414C5.93192 13.5412 5.95514 13.5396 6.00404 13.5228C6.05542 13.5052 6.12116 13.4757 6.20094 13.4313C6.36162 13.3418 6.5478 13.2097 6.74421 13.0496C7.13684 12.7295 7.51999 12.3393 7.74546 12.0798C7.85457 11.9543 8.00811 11.8828 8.16897 11.8828H9.04873ZM14.0634 10.7482C14.0634 10.7482 14.0634 10.7481 14.0634 10.7482L14.0634 10.7482Z" fill="white"/>
<path fill-rule="evenodd" clip-rule="evenodd" d="M3.59463 8.51037C4.06722 7.98984 4.71063 7.81836 5.3615 7.81836C6.04266 7.81836 6.64741 8.04208 7.08968 8.45984C7.53515 8.88063 7.78356 9.46989 7.78356 10.118C7.78356 10.4562 7.5255 10.7304 7.20717 10.7304C6.88884 10.7304 6.63078 10.4562 6.63078 10.118C6.63078 9.81451 6.51952 9.56015 6.32375 9.37522C6.12477 9.18727 5.80668 9.04319 5.3615 9.04319C4.88605 9.04319 4.59979 9.16744 4.4243 9.36073C4.24441 9.55887 4.07856 9.94175 4.07856 10.6946C4.07856 11.3235 4.32291 11.6569 4.54478 11.8472C4.66357 11.9491 4.78411 12.0157 4.87461 12.0563C4.91925 12.0763 4.9547 12.0892 4.97629 12.0963C4.98702 12.0999 4.99412 12.102 4.99698 12.1028C4.99724 12.1029 4.99746 12.1029 4.99764 12.103C5.30461 12.1811 5.49568 12.5077 5.42499 12.8353C5.35386 13.165 5.04466 13.371 4.73438 13.2954L4.86317 12.6985C4.73438 13.2954 4.73407 13.2953 4.73376 13.2953L4.73311 13.2951L4.7317 13.2948L4.72851 13.2939L4.72058 13.2919C4.71462 13.2903 4.70733 13.2883 4.69879 13.2859C4.68171 13.2811 4.65958 13.2744 4.63309 13.2656C4.58025 13.2481 4.50937 13.222 4.42642 13.1848C4.26173 13.1109 4.04202 12.9902 3.82056 12.8002C3.36193 12.4067 2.92578 11.7381 2.92578 10.6946C2.92578 9.77509 3.12643 9.02606 3.59463 8.51037Z" fill="white"/>
<path fill-rule="evenodd" clip-rule="evenodd" d="M12.0214 4.12185C12.968 4.19445 13.9301 4.73288 14.6205 5.93336C15.2137 6.96469 15.0402 8.28098 14.5115 9.27699C13.977 10.2839 12.9887 11.1399 11.74 11.1399C10.9602 11.1399 10.3664 10.78 9.89862 10.3041C9.46629 9.86421 9.11307 9.29434 8.80166 8.79192C8.78966 8.77256 8.77773 8.7533 8.76585 8.73415C8.42791 8.18935 8.13132 7.72192 7.78595 7.38156C7.45931 7.05966 7.11607 6.87924 6.67799 6.87924C5.98681 6.87924 5.47358 7.12665 5.18741 7.43116C4.91309 7.72306 4.83804 8.06354 4.96026 8.40594C5.07314 8.72219 4.92335 9.07579 4.62571 9.19572C4.32806 9.31565 3.99527 9.15651 3.88239 8.84026C3.5796 7.99196 3.81855 7.1543 4.37166 6.56574C4.9129 5.98979 5.74051 5.65442 6.67799 5.65442C7.47491 5.65442 8.08588 6.00658 8.56988 6.48354C9.03438 6.94131 9.4044 7.53782 9.7268 8.05758L9.72838 8.06013C10.069 8.60922 10.3597 9.07733 10.6959 9.4194C11.0133 9.74234 11.3356 9.91504 11.74 9.91504C12.4593 9.91504 13.1148 9.41505 13.5074 8.67533C13.9058 7.9247 13.9426 7.10362 13.6368 6.57202L13.6368 6.57197C13.1328 5.69561 12.4993 5.38652 11.9384 5.34349C11.3454 5.29801 10.7954 5.54636 10.4929 5.85204C10.2623 6.08516 9.89745 6.07549 9.67804 5.83043C9.45864 5.58537 9.46774 5.19774 9.69839 4.96462C10.2376 4.41959 11.1069 4.0517 12.0214 4.12185Z" fill="white"/>
<path fill-rule="evenodd" clip-rule="evenodd" d="M8.37024 5.56757C7.78359 5.64375 7.3638 5.95206 7.22668 6.44203C7.13595 6.76623 6.81505 6.9509 6.50992 6.8545C6.20479 6.7581 6.03099 6.41714 6.12171 6.09294C6.43259 4.98208 7.3598 4.46483 8.2304 4.35179C9.08492 4.24084 10.0631 4.48857 10.6648 5.12788C11.2198 5.71764 11.5034 6.46648 11.4292 7.3034C11.357 8.11718 10.9538 8.94155 10.2801 9.73904C10.0675 9.99074 9.70309 10.0116 9.46619 9.78572C9.22929 9.55979 9.20962 9.1726 9.42225 8.92089C9.99589 8.24186 10.2402 7.654 10.2815 7.18853C10.3207 6.74619 10.1836 6.34878 9.84963 5.99397C9.56233 5.68871 8.97297 5.48931 8.37024 5.56757ZM16.773 7.03968C17.0076 7.5021 17.1119 8.08019 17.0634 8.77966C16.9616 10.2454 16.1727 11.1355 15.186 11.3988C14.2543 11.6474 13.1956 11.3161 12.5681 10.5071C12.3656 10.2461 12.4006 9.86014 12.6463 9.64503C12.8919 9.42993 13.2552 9.46714 13.4577 9.72815C13.7862 10.1517 14.3804 10.3509 14.9052 10.2109C15.3748 10.0856 15.8458 9.6679 15.9137 8.68957C15.95 8.16698 15.8661 7.83344 15.7583 7.62095C15.6521 7.41165 15.5008 7.27638 15.3276 7.18686C15.1481 7.0941 14.945 7.05142 14.7608 7.0427C14.6702 7.03841 14.5909 7.0427 14.53 7.05052C14.4723 7.05791 14.4459 7.06652 14.4459 7.06627C14.4459 7.06623 14.4465 7.06595 14.4479 7.06539C14.1506 7.1863 13.8174 7.02825 13.7036 6.71237C13.5898 6.39649 13.7385 6.04241 14.0358 5.9215C14.237 5.8397 14.5251 5.8055 14.8122 5.81909C15.1135 5.83336 15.4787 5.90293 15.8318 6.08541C16.1911 6.27111 16.5367 6.57406 16.773 7.03968Z" fill="white"/>
</g>
</g>
<defs>
<linearGradient id="paint0_linear_5777_3591" x1="16.988" y1="21.4458" x2="-5.13519" y2="6.13659" gradientUnits="userSpaceOnUse">
<stop stop-color="#0AFE4E"/>
<stop offset="0.272998" stop-color="#0A4DFE"/>
<stop offset="1" stop-color="#CB00FE"/>
</linearGradient>
<clipPath id="clip0_5777_3591">
<rect width="20" height="20" fill="white"/>
</clipPath>
<clipPath id="clip1_5777_3591">
<rect width="16" height="17" fill="white" transform="translate(2 2)"/>
</clipPath>
</defs>
</svg>
