<svg width="16" height="16" viewBox="0 0 16 16" fill="none" xmlns="http://www.w3.org/2000/svg">
<path d="M14.3579 10.4036C14.0204 11.2089 13.5311 11.9321 12.9079 12.5571C12.2913 13.1753 11.5605 13.6678 10.7561 14.0071C9.92297 14.3604 9.02702 14.5414 8.12214 14.5393C7.37392 14.5393 6.64178 14.4196 5.94535 14.1821C4.31857 14.9411 2.43999 15 1.90071 15C1.86142 15 1.76857 15 1.73285 14.9964C1.52035 14.9893 1.32571 14.8804 1.21142 14.7036C1.09535 14.5268 1.07392 14.3036 1.15071 14.1054L2.29892 11.2196C1.68063 10.1751 1.35495 8.98343 1.35607 7.76964C1.35607 6.85178 1.53464 5.96607 1.88821 5.13393C2.22571 4.33036 2.71321 3.60536 3.33821 2.98214C3.95785 2.36071 4.68464 1.87321 5.49 1.53214C6.32392 1.17857 7.20964 0.999999 8.12214 0.999999C9.03821 0.999999 9.92392 1.18036 10.7596 1.53214C11.5614 1.86964 12.2864 2.35893 12.9096 2.98214C13.5293 3.60357 14.0186 4.32857 14.3596 5.13571C14.7127 5.96949 14.8937 6.86599 14.8918 7.77143C14.8882 8.68571 14.7114 9.57143 14.3579 10.4036ZM13.1721 5.64464C12.8968 4.99066 12.4971 4.39634 11.9954 3.89464C11.4882 3.38571 10.9007 2.98928 10.2507 2.71786H10.2489C9.57035 2.43214 8.85071 2.28571 8.10785 2.28571C7.38625 2.28491 6.67161 2.42681 6.00505 2.70324C5.33849 2.97967 4.73317 3.38518 4.22392 3.89643C3.71678 4.40536 3.32035 4.99286 3.04892 5.64286V5.64464C2.76321 6.31964 2.61857 7.04107 2.61857 7.78571C2.61857 8.775 2.88285 9.74464 3.38285 10.5893L3.61857 10.9839L3.44892 11.4107L2.53285 13.7143C2.79892 13.7036 3.17392 13.6768 3.59892 13.6143C4.38107 13.4982 5.07214 13.3018 5.65071 13.0321L5.99 12.8732L6.34535 12.9946C6.90785 13.1875 7.5025 13.2839 8.11142 13.2839C8.83303 13.2847 9.54767 13.1428 10.2142 12.8664C10.8808 12.59 11.4861 12.1845 11.9954 11.6732C12.5025 11.1643 12.8989 10.5768 13.1704 9.92679L13.1721 9.925L13.1739 9.92321C13.4596 9.25179 13.6043 8.53036 13.6061 7.78393C13.6043 7.03929 13.4579 6.31964 13.1721 5.64464ZM9.79612 8.5C9.43183 8.5 9.13362 8.20179 9.13362 7.8375V6.85357C9.13362 6.48929 9.43005 6.19107 9.79612 6.19107C10.1622 6.19107 10.4586 6.48929 10.4586 6.85357V7.8375C10.4586 8.20357 10.1604 8.5 9.79612 8.5ZM6.66755 8.5C6.30148 8.5 6.00505 8.20179 6.00505 7.8375V6.85357C6.00505 6.48929 6.30326 6.19107 6.66755 6.19107C7.03362 6.19107 7.33005 6.48929 7.33005 6.85357V7.8375C7.33005 8.20357 7.03184 8.5 6.66755 8.5Z" fill="#5E5E5E"/>
</svg>
