<svg width="24" height="24" viewBox="0 0 24 24" fill="none" xmlns="http://www.w3.org/2000/svg">
<path d="M11.9998 0.845703L21.6598 6.4237V17.5777L11.9998 23.1557L2.33984 17.5777V6.4237L11.9998 0.845703ZM11.9998 3.1557L4.33984 7.5777V16.4237L11.9998 20.8457L19.6598 16.4237V7.5777L11.9998 3.1557ZM11.9998 9.0007C11.2042 9.0007 10.4411 9.31677 9.87852 9.87938C9.31591 10.442 8.99984 11.2051 8.99984 12.0007C8.99984 12.7964 9.31591 13.5594 9.87852 14.122C10.4411 14.6846 11.2042 15.0007 11.9998 15.0007C12.7955 15.0007 13.5586 14.6846 14.1212 14.122C14.6838 13.5594 14.9998 12.7964 14.9998 12.0007C14.9998 11.2051 14.6838 10.442 14.1212 9.87938C13.5586 9.31677 12.7955 9.0007 11.9998 9.0007ZM6.99984 12.0007C6.99984 10.6746 7.52663 9.40285 8.46431 8.46517C9.40199 7.52749 10.6738 7.0007 11.9998 7.0007C13.3259 7.0007 14.5977 7.52749 15.5354 8.46517C16.4731 9.40285 16.9998 10.6746 16.9998 12.0007C16.9998 13.3268 16.4731 14.5986 15.5354 15.5362C14.5977 16.4739 13.3259 17.0007 11.9998 17.0007C10.6738 17.0007 9.40199 16.4739 8.46431 15.5362C7.52663 14.5986 6.99984 13.3268 6.99984 12.0007Z" fill="#0A4DFE"/>
</svg>
