<svg width="16" height="16" viewBox="0 0 16 16" fill="none" xmlns="http://www.w3.org/2000/svg">
<path d="M7.88638 10.6613C7.89975 10.6783 7.91682 10.6922 7.93631 10.7017C7.9558 10.7111 7.9772 10.7161 7.99888 10.7161C8.02057 10.7161 8.04196 10.7111 8.06146 10.7017C8.08095 10.6922 8.09802 10.6783 8.11138 10.6613L10.1114 8.13092C10.1846 8.03806 10.1185 7.90056 9.99888 7.90056H8.67567V1.8577C8.67567 1.77913 8.61138 1.71484 8.53281 1.71484H7.46138C7.38281 1.71484 7.31853 1.77913 7.31853 1.8577V7.89877H5.99888C5.87924 7.89877 5.81317 8.03627 5.88638 8.12913L7.88638 10.6613ZM14.5346 10.0363H13.4632C13.3846 10.0363 13.3203 10.1006 13.3203 10.1791V12.9291H2.67746V10.1791C2.67746 10.1006 2.61317 10.0363 2.5346 10.0363H1.46317C1.3846 10.0363 1.32031 10.1006 1.32031 10.1791V13.7148C1.32031 14.0309 1.57567 14.2863 1.89174 14.2863H14.106C14.4221 14.2863 14.6775 14.0309 14.6775 13.7148V10.1791C14.6775 10.1006 14.6132 10.0363 14.5346 10.0363Z" fill="#5E5E5E"/>
</svg>
