<svg width="20" height="21" viewBox="0 0 20 21" fill="none" xmlns="http://www.w3.org/2000/svg">
<path fill-rule="evenodd" clip-rule="evenodd" d="M15.4504 2.55881C16.0365 2.45439 16.841 2.42349 17.459 3.04148C18.077 3.65947 18.045 4.46286 17.9417 5.04996C17.8394 5.62746 17.5975 6.35093 17.3258 7.16711L17.3002 7.24383L14.9944 14.1589L14.9837 14.1909C14.7024 15.0348 14.4787 15.7082 14.2816 16.2111C14.0972 16.6852 13.8788 17.1754 13.5485 17.5185C13.2502 17.8288 12.8923 18.0757 12.4962 18.2444C12.1002 18.4131 11.6742 18.5 11.2437 18.5C10.8133 18.5 10.3872 18.4131 9.99118 18.2444C9.59514 18.0757 9.23725 17.8288 8.93896 17.5185C8.60865 17.1754 8.39021 16.6852 8.20588 16.2111C8.00875 15.7082 7.78499 15.0348 7.50262 14.1898L7.49197 14.16C7.3641 13.7754 7.33534 13.6986 7.30444 13.64C7.20436 13.4506 7.04951 13.2958 6.86011 13.1957C6.8015 13.1638 6.72479 13.1361 6.34013 13.0071L6.31029 12.9965C5.46532 12.7152 4.79191 12.4914 4.28791 12.2943C3.81481 12.11 3.32467 11.8915 2.98156 11.5612C2.6712 11.263 2.42428 10.9051 2.25561 10.5091C2.08694 10.113 2 9.68701 2 9.25656C2 8.82611 2.08694 8.40009 2.25561 8.00406C2.42428 7.60804 2.6712 7.25015 2.98156 6.95188C3.32467 6.62157 3.81481 6.40314 4.28791 6.21881C4.95668 5.96927 5.63098 5.7348 6.31029 5.51558L6.34013 5.50493L13.2565 3.20024L13.3332 3.17467C14.1494 2.90297 14.8729 2.6611 15.4504 2.55881Z" fill="#0057FF"/>
</svg>
