<svg width="16" height="16" viewBox="0 0 16 16" fill="none" xmlns="http://www.w3.org/2000/svg">
<g clip-path="url(#clip0_6091_3131)">
<path d="M15.9571 7.91791L9.62857 1.68219C9.61546 1.66902 9.59988 1.65856 9.58272 1.65143C9.56556 1.6443 9.54716 1.64062 9.52857 1.64062C9.50999 1.64062 9.49159 1.6443 9.47442 1.65143C9.45726 1.65856 9.44168 1.66902 9.42857 1.68219L5.16607 5.88219C5.13925 5.90881 5.12401 5.94493 5.12368 5.98272C5.12334 6.0205 5.13794 6.05689 5.16429 6.08398L5.16607 6.08576L5.88036 6.78934L3.7875 8.84826C3.76068 8.87488 3.74544 8.911 3.7451 8.94879C3.74477 8.98658 3.75936 9.02296 3.78571 9.05005L3.7875 9.05184L4.49286 9.74648L1.11607 13.0858H0.144643C0.0660714 13.0858 0 13.15 0 13.2286V14.2143C0 14.2929 0.0642857 14.3572 0.142857 14.3572H6.30179C6.33929 14.3572 6.375 14.3429 6.40179 14.3161L7.76071 12.9661L8.48214 13.6768C8.49525 13.69 8.51083 13.7005 8.528 13.7076C8.54516 13.7147 8.56356 13.7184 8.58214 13.7184C8.60073 13.7184 8.61913 13.7147 8.63629 13.7076C8.65345 13.7005 8.66903 13.69 8.68214 13.6768L10.7732 11.6125L11.4893 12.3179C11.5024 12.3311 11.518 12.3415 11.5351 12.3487C11.5523 12.3558 11.5707 12.3595 11.5893 12.3595C11.6079 12.3595 11.6263 12.3558 11.6434 12.3487C11.6606 12.3415 11.6762 12.3311 11.6893 12.3179L15.9518 8.11791C16.0125 8.06433 16.0125 7.97505 15.9571 7.91791ZM5.81786 13.075H2.95714L5.35714 10.7L6.7875 12.109L5.81786 13.075ZM8.58214 11.9661L5.52143 8.95005L6.74643 7.74291L9.80714 10.759L8.58214 11.9661ZM11.5911 10.6072L6.89821 5.98398L9.52857 3.39291L14.2214 8.01791L11.5911 10.6072Z" fill="#5E5E5E"/>
</g>
<defs>
<clipPath id="clip0_6091_3131">
<rect width="16" height="16" fill="white"/>
</clipPath>
</defs>
</svg>
