<svg width="24" height="24" viewBox="0 0 24 24" fill="none" xmlns="http://www.w3.org/2000/svg">
<g filter="url(#filter0_d_6856_6054)">
<rect x="4" y="2" width="16" height="16" rx="8" fill="white"/>
<path d="M9.5 6.5C9.5 5.11929 10.6193 4 12 4C13.3807 4 14.5 5.11929 14.5 6.5V9H13.5V6.5C13.5 5.67157 12.8284 5 12 5C11.1716 5 10.5 5.67157 10.5 6.5V9H9.5V6.5Z" fill="#5E5E5E"/>
<path fill-rule="evenodd" clip-rule="evenodd" d="M10 8C8.89543 8 8 8.89543 8 10V13C8 14.1046 8.89543 15 10 15H14C15.1046 15 16 14.1046 16 13V10C16 8.89543 15.1046 8 14 8H10ZM13 11C13 11.3701 12.7989 11.6933 12.5 11.8662V13H11.5V11.8662C11.2011 11.6933 11 11.3701 11 11C11 10.4477 11.4477 10 12 10C12.5523 10 13 10.4477 13 11Z" fill="#5E5E5E"/>
</g>
<defs>
<filter id="filter0_d_6856_6054" x="0" y="0" width="24" height="24" filterUnits="userSpaceOnUse" color-interpolation-filters="sRGB">
<feFlood flood-opacity="0" result="BackgroundImageFix"/>
<feColorMatrix in="SourceAlpha" type="matrix" values="0 0 0 0 0 0 0 0 0 0 0 0 0 0 0 0 0 0 127 0" result="hardAlpha"/>
<feOffset dy="2"/>
<feGaussianBlur stdDeviation="2"/>
<feComposite in2="hardAlpha" operator="out"/>
<feColorMatrix type="matrix" values="0 0 0 0 0 0 0 0 0 0 0 0 0 0 0 0 0 0 0.2 0"/>
<feBlend mode="normal" in2="BackgroundImageFix" result="effect1_dropShadow_6856_6054"/>
<feBlend mode="normal" in="SourceGraphic" in2="effect1_dropShadow_6856_6054" result="shape"/>
</filter>
</defs>
</svg>
