<svg width="20" height="20" viewBox="0 0 20 20" fill="none" xmlns="http://www.w3.org/2000/svg">
<path fill-rule="evenodd" clip-rule="evenodd" d="M2 3.25C2 2.83579 2.33579 2.5 2.75 2.5H17.25C17.6642 2.5 18 2.83579 18 3.25C18 3.66421 17.6642 4 17.25 4H2.75C2.33579 4 2 3.66421 2 3.25ZM2 9.75C2 9.33579 2.33579 9 2.75 9H17.25C17.6642 9 18 9.33579 18 9.75C18 10.1642 17.6642 10.5 17.25 10.5H2.75C2.33579 10.5 2 10.1642 2 9.75ZM2.75 15.5C2.33579 15.5 2 15.8358 2 16.25C2 16.6642 2.33579 17 2.75 17H17.25C17.6642 17 18 16.6642 18 16.25C18 15.8358 17.6642 15.5 17.25 15.5H2.75Z" fill="#333333"/>
</svg>
