<svg width="24" height="24" viewBox="0 0 24 24" fill="none" xmlns="http://www.w3.org/2000/svg">
<g clip-path="url(#clip0_6931_3876)">
<path d="M23.92 9.68L14.32 0.08C14.24 0.08 14.08 0 14 0H0.4C0.24 0 0.08 0.08 0 0.24C0 0.4 0 0.56 0.08 0.72L23.28 23.92C23.36 24 23.44 24 23.6 24H23.76C23.92 23.92 24 23.76 24 23.6V10C24 9.92 23.92 9.76 23.92 9.68ZM10.88 7.84C10.8 7.84 10.72 7.84 10.72 7.76C10.56 7.68 10.48 7.52 10.56 7.36L11.36 3.6L9.2 5.76C9.04 5.92 8.8 5.92 8.64 5.76C8.48 5.6 8.48 5.36 8.64 5.2L11.76 2.08C11.92 1.92 12.08 1.92 12.24 2C12.4 2.08 12.48 2.24 12.4 2.4L11.6 6.16L13.76 4C13.92 3.84 14.16 3.84 14.32 4C14.48 4.16 14.48 4.4 14.32 4.56L11.2 7.6C11.04 7.84 10.96 7.84 10.88 7.84ZM14.24 8.64L13.36 7.76L12.48 8.64L13.76 9.92C13.92 10.08 13.92 10.32 13.76 10.48C13.68 10.56 13.6 10.56 13.44 10.56C13.28 10.56 13.2 10.56 13.12 10.48L11.52 8.88C11.36 8.72 11.36 8.48 11.52 8.32L14.64 5.2C14.72 5.12 14.8 5.04 14.96 5.12C15.04 5.12 15.2 5.2 15.28 5.2L16.96 6.88C17.12 7.04 17.12 7.28 16.96 7.44C16.8 7.6 16.56 7.6 16.4 7.44L14.96 6L14 7.2L14.88 8.08C15.04 8.24 15.04 8.48 14.88 8.64C14.8 8.72 14.72 8.72 14.56 8.72C14.4 8.72 14.32 8.72 14.24 8.64ZM21.04 11.52L17.36 14C17.28 14.08 17.2 14.08 17.12 14.08C17.04 14.08 16.96 14.08 16.88 14C16.72 13.92 16.72 13.76 16.72 13.6L17.36 11.28L15.28 12.08C15.12 12.16 14.96 12.08 14.8 11.92C14.72 11.76 14.72 11.6 14.8 11.44L17.28 7.76C17.44 7.6 17.68 7.52 17.84 7.68C18 7.84 18.08 8.08 17.92 8.24L16.16 10.88L17.84 10.24C18 10.16 18.16 10.24 18.24 10.32C18.32 10.4 18.4 10.56 18.32 10.72L17.76 12.8L20.56 10.88C20.72 10.72 20.96 10.8 21.12 10.96C21.28 11.12 21.2 11.44 21.04 11.52Z" fill="#0A4DFE"/>
</g>
<defs>
<clipPath id="clip0_6931_3876">
<rect width="24" height="24" fill="white"/>
</clipPath>
</defs>
</svg>
