<svg width="20" height="20" viewBox="0 0 20 20" fill="none" xmlns="http://www.w3.org/2000/svg">
<path fill-rule="evenodd" clip-rule="evenodd" d="M9 2C4.58201 2 1.00001 5.58191 1.00001 9.99981C0.998132 11.3109 1.31987 12.6021 1.93667 13.7591L1.03267 16.939C0.992124 17.0817 0.990427 17.2327 1.02776 17.3763C1.06509 17.52 1.1401 17.651 1.24504 17.7559C1.34997 17.8609 1.48102 17.9359 1.62464 17.9732C1.76827 18.0105 1.91926 18.0088 2.06201 17.9683L5.24201 17.0636C6.39861 17.68 7.68942 18.0015 9 17.9996C9.87924 17.9996 10.7254 17.8578 11.5167 17.5957C11.1868 16.9698 11 16.2567 11 15.5C11 13.0147 13.0147 11 15.5 11C15.9913 11 16.4643 11.0787 16.9069 11.2243C16.9682 10.8251 17 10.4162 17 9.99981C17 5.58191 13.418 2 9 2ZM6.50001 8.99983C6.22401 8.99983 6.00001 8.77584 6.00001 8.49984C6.00001 8.36724 6.05268 8.24007 6.14645 8.1463C6.24022 8.05253 6.3674 7.99986 6.50001 7.99986H11.5C11.6326 7.99986 11.7598 8.05253 11.8536 8.1463C11.9473 8.24007 12 8.36724 12 8.49984C12 8.63245 11.9473 8.75962 11.8536 8.85339C11.7598 8.94715 11.6326 8.99983 11.5 8.99983H6.50001ZM6.14645 11.1462C6.24022 11.0525 6.3674 10.9998 6.50001 10.9998H9.5C9.63261 10.9998 9.75979 11.0525 9.85356 11.1462C9.94733 11.24 10 11.3672 10 11.4998C10 11.6324 9.94733 11.7596 9.85356 11.8533C9.75979 11.9471 9.63261 11.9998 9.5 11.9998H6.50001C6.3674 11.9998 6.24022 11.9471 6.14645 11.8533C6.05268 11.7596 6.00001 11.6324 6.00001 11.4998C6.00001 11.3672 6.05268 11.24 6.14645 11.1462Z" fill="#0A4DFE"/>
<line x1="13" y1="15.5" x2="18" y2="15.5" stroke="#0A4DFE"/>
<line x1="15.5" y1="13" x2="15.5" y2="18" stroke="#0A4DFE"/>
</svg>
