<?xml version="1.0" standalone="no"?><!DOCTYPE svg PUBLIC "-//W3C//DTD SVG 1.1//EN"
        "http://www.w3.org/Graphics/SVG/1.1/DTD/svg11.dtd">
<svg t="1711441304679" class="icon" viewBox="0 0 1024 1024" version="1.1" xmlns="http://www.w3.org/2000/svg" p-id="4240"
     xmlns:xlink="http://www.w3.org/1999/xlink" width="200" height="200">
    <path d="M192 512a320 320 0 0 1 588.885333-173.653333l-85.674666-17.066667a64 64 0 0 0-25.088 125.44l213.333333 42.666667a64 64 0 0 0 73.813333-44.330667l64-213.333333a64 64 0 0 0-122.581333-36.778667l-18.517333 61.738667A447.445333 447.445333 0 0 0 512 64C264.576 64 64 264.576 64 512S264.576 960 512 960c195.157333 0 361.002667-124.757333 422.485333-298.666667a64 64 0 0 0-120.661333-42.666666A320 320 0 0 1 192 512z"
          fill="#000000" p-id="4241"></path>
</svg>
