<svg width="24" height="24" viewBox="0 0 24 24" fill="none" xmlns="http://www.w3.org/2000/svg">
<g clip-path="url(#clip0_6808_5139)">
<path d="M12.0144 8.74743C11.2135 8.74743 10.4635 9.05815 9.89563 9.62601C9.33045 10.1939 9.01706 10.9439 9.01706 11.7448C9.01706 12.5456 9.33045 13.2956 9.89563 13.8635C10.4635 14.4287 11.2135 14.7421 12.0144 14.7421C12.8153 14.7421 13.5653 14.4287 14.1331 13.8635C14.6983 13.2956 15.0117 12.5456 15.0117 11.7448C15.0117 10.9439 14.6983 10.1939 14.1331 9.62601C13.8558 9.34651 13.5256 9.12492 13.1619 8.9741C12.7982 8.82328 12.4081 8.74623 12.0144 8.74743ZM23.0581 15.0555L21.3063 13.5581C21.3894 13.0492 21.4322 12.5296 21.4322 12.0126C21.4322 11.4956 21.3894 10.9733 21.3063 10.4671L23.0581 8.96976C23.1905 8.85647 23.2852 8.70558 23.3297 8.53716C23.3742 8.36874 23.3663 8.19076 23.3072 8.0269L23.2831 7.95726C22.801 6.60911 22.0786 5.35946 21.151 4.26886L21.1028 4.21261C20.9901 4.08016 20.84 3.98495 20.6722 3.93953C20.5043 3.8941 20.3267 3.90059 20.1626 3.95815L17.9876 4.73225C17.184 4.07333 16.2894 3.55368 15.3197 3.19208L14.8992 0.917969C14.8675 0.746653 14.7844 0.589047 14.6609 0.466088C14.5375 0.343129 14.3796 0.260639 14.2081 0.229576L14.1358 0.216183C12.743 -0.0356027 11.2751 -0.0356027 9.88224 0.216183L9.80992 0.229576C9.63848 0.260639 9.48055 0.343129 9.35711 0.466088C9.23368 0.589047 9.15057 0.746653 9.11885 0.917969L8.69563 3.20279C7.73517 3.56728 6.84044 4.08566 6.04653 4.73761L3.85545 3.95815C3.69143 3.90014 3.51364 3.89341 3.34571 3.93886C3.17777 3.98431 3.02765 4.07979 2.91528 4.21261L2.86706 4.26886C1.94106 5.36062 1.21886 6.60995 0.734918 7.95726L0.710811 8.0269C0.590275 8.36172 0.689382 8.73672 0.959918 8.96976L2.73313 10.4831C2.6501 10.9867 2.60992 11.501 2.60992 12.0099C2.60992 12.5242 2.6501 13.0385 2.73313 13.5367L0.965275 15.0501C0.832942 15.1634 0.73823 15.3143 0.693732 15.4827C0.649235 15.6511 0.65706 15.8291 0.716168 15.993L0.740275 16.0626C1.2251 17.4099 1.94028 18.6555 2.87242 19.751L2.92063 19.8073C3.03328 19.9397 3.18341 20.0349 3.35125 20.0803C3.51908 20.1258 3.69674 20.1193 3.86081 20.0617L6.05188 19.2823C6.8501 19.9385 7.73938 20.4581 8.70099 20.8171L9.1242 23.1019C9.15593 23.2732 9.23904 23.4308 9.36247 23.5538C9.48591 23.6767 9.64384 23.7592 9.81528 23.7903L9.8876 23.8037C11.2942 24.0568 12.7346 24.0568 14.1412 23.8037L14.2135 23.7903C14.3849 23.7592 14.5429 23.6767 14.6663 23.5538C14.7897 23.4308 14.8728 23.2732 14.9046 23.1019L15.3251 20.8278C16.2947 20.4635 17.1894 19.9465 17.993 19.2876L20.168 20.0617C20.332 20.1197 20.5098 20.1265 20.6777 20.081C20.8456 20.0356 20.9958 19.9401 21.1081 19.8073L21.1563 19.751C22.0885 18.6501 22.8037 17.4099 23.2885 16.0626L23.3126 15.993C23.4278 15.6608 23.3287 15.2885 23.0581 15.0555ZM12.0144 16.4537C9.41349 16.4537 7.30545 14.3456 7.30545 11.7448C7.30545 9.14386 9.41349 7.03583 12.0144 7.03583C14.6153 7.03583 16.7233 9.14386 16.7233 11.7448C16.7233 14.3456 14.6153 16.4537 12.0144 16.4537Z" fill="white"/>
</g>
<defs>
<clipPath id="clip0_6808_5139">
<rect width="24" height="24" fill="white"/>
</clipPath>
</defs>
</svg>
