<svg width="18" height="20" viewBox="0 0 18 20" fill="none" xmlns="http://www.w3.org/2000/svg">
<path d="M8.99922 0.705078L17.0492 5.35341V14.6484L8.99922 19.2967L0.949219 14.6484V5.35341L8.99922 0.705078ZM8.99922 2.63008L2.61589 6.31508V13.6867L8.99922 17.3717L15.3826 13.6867V6.31508L8.99922 2.63008ZM8.99922 7.50091C8.33618 7.50091 7.70029 7.7643 7.23145 8.23314C6.76261 8.70198 6.49922 9.33787 6.49922 10.0009C6.49922 10.664 6.76261 11.2998 7.23145 11.7687C7.70029 12.2375 8.33618 12.5009 8.99922 12.5009C9.66226 12.5009 10.2981 12.2375 10.767 11.7687C11.2358 11.2998 11.4992 10.664 11.4992 10.0009C11.4992 9.33787 11.2358 8.70198 10.767 8.23314C10.2981 7.7643 9.66226 7.50091 8.99922 7.50091ZM4.83255 10.0009C4.83255 8.89584 5.27154 7.83603 6.05294 7.05463C6.83434 6.27323 7.89415 5.83424 8.99922 5.83424C10.1043 5.83424 11.1641 6.27323 11.9455 7.05463C12.7269 7.83603 13.1659 8.89584 13.1659 10.0009C13.1659 11.106 12.7269 12.1658 11.9455 12.9472C11.1641 13.7286 10.1043 14.1676 8.99922 14.1676C7.89415 14.1676 6.83434 13.7286 6.05294 12.9472C5.27154 12.1658 4.83255 11.106 4.83255 10.0009Z" fill="#81878B"/>
</svg>
