<svg width="16" height="17" viewBox="0 0 16 17" fill="none" xmlns="http://www.w3.org/2000/svg">
<g clip-path="url(#clip0_5709_3350)">
<path d="M14.8548 7.04698C15.0329 6.50819 15.0944 5.93766 15.0351 5.37329C14.9757 4.80892 14.797 4.26363 14.5108 3.77364C14.0851 3.03351 13.4356 2.44755 12.6557 2.10012C11.8757 1.75269 11.0057 1.66172 10.1708 1.84031C9.69656 1.31276 9.09189 0.919247 8.41749 0.69929C7.74309 0.479333 7.02269 0.440671 6.32863 0.587185C5.63456 0.733699 4.99125 1.06023 4.46329 1.534C3.93533 2.00777 3.54131 2.6121 3.32078 3.28631C2.76475 3.40096 2.23951 3.63266 1.77995 3.96601C1.3204 4.29935 0.937067 4.7267 0.655442 5.21964C0.225817 5.95896 0.0422692 6.81568 0.131303 7.66611C0.220336 8.51655 0.577343 9.31668 1.15078 9.95098C0.97109 10.4894 0.90847 11.0601 0.967105 11.6247C1.02574 12.1893 1.20428 12.7349 1.49078 13.225C1.91662 13.9657 2.56671 14.5521 3.34731 14.8996C4.12791 15.2471 4.9987 15.3377 5.83411 15.1583C6.21133 15.5823 6.67446 15.9213 7.19274 16.1525C7.71102 16.3838 8.27258 16.5021 8.84011 16.4996C9.6958 16.5 10.5295 16.2287 11.2211 15.7247C11.9126 15.2208 12.4263 14.5103 12.6881 13.6956C13.244 13.5809 13.7691 13.3492 14.2286 13.0158C14.688 12.6825 15.0712 12.2552 15.3528 11.7623C15.7773 11.0241 15.9577 10.1707 15.8683 9.3239C15.7789 8.47708 15.4241 7.68018 14.8548 7.04698ZM8.84011 15.453C8.13946 15.4539 7.46078 15.2085 6.92278 14.7596L7.01678 14.7056L10.2028 12.867C10.2817 12.8202 10.3472 12.7538 10.393 12.6743C10.4388 12.5947 10.4633 12.5047 10.4641 12.413V7.92165L11.8108 8.70031C11.8175 8.70364 11.8233 8.70853 11.8277 8.71456C11.8321 8.72059 11.835 8.72759 11.8361 8.73498V12.457C11.8343 13.251 11.5181 14.012 10.9567 14.5735C10.3952 15.135 9.63416 15.4512 8.84011 15.453ZM2.40011 12.7023C2.04844 12.0954 1.92214 11.3839 2.04344 10.693L2.13811 10.7496L5.32678 12.589C5.4056 12.6353 5.49536 12.6597 5.58678 12.6597C5.67819 12.6597 5.76795 12.6353 5.84678 12.589L9.74211 10.343V11.8976C9.74183 11.9058 9.7397 11.9137 9.73589 11.9209C9.73208 11.928 9.72668 11.9342 9.72011 11.939L6.49344 13.7996C5.80491 14.196 4.98726 14.3031 4.21987 14.0974C3.45249 13.8917 2.79804 13.39 2.40011 12.7023ZM1.56011 5.76364C1.91476 5.15328 2.47329 4.68752 3.13744 4.44831V8.23298C3.13644 8.32443 3.15989 8.41449 3.20537 8.49384C3.25085 8.57319 3.3167 8.63894 3.39611 8.68431L7.27278 10.9203L5.92611 11.699C5.91875 11.7026 5.91065 11.7045 5.90244 11.7045C5.89423 11.7045 5.88613 11.7026 5.87878 11.699L2.65878 9.84164C1.97127 9.44343 1.46961 8.78897 1.26368 8.02161C1.05775 7.25426 1.16434 6.43657 1.56011 5.74764V5.76364ZM12.6248 8.33364L8.73611 6.07564L10.0794 5.29964C10.0868 5.296 10.0949 5.29411 10.1031 5.29411C10.1113 5.29411 10.1194 5.296 10.1268 5.29964L13.3468 7.16031C13.8394 7.44426 14.241 7.86253 14.5048 8.36626C14.7685 8.86999 14.8835 9.43837 14.8362 10.005C14.789 10.5716 14.5815 11.1131 14.2379 11.5662C13.8944 12.0193 13.429 12.3652 12.8961 12.5636V8.77831C12.8933 8.68703 12.8668 8.59804 12.8193 8.52008C12.7717 8.44213 12.7047 8.37788 12.6248 8.33364ZM13.9648 6.31831L13.8708 6.26164L10.6881 4.40698C10.6087 4.36072 10.5184 4.33634 10.4264 4.33634C10.3345 4.33634 10.2442 4.36072 10.1648 4.40698L6.27278 6.65298V5.09764C6.27223 5.08985 6.27366 5.08203 6.27692 5.07493C6.28018 5.06782 6.28517 5.06165 6.29144 5.05698L9.51144 3.19898C10.005 2.91493 10.5692 2.77722 11.1382 2.80196C11.7071 2.8267 12.2572 3.01285 12.7243 3.33867C13.1913 3.66448 13.556 4.1165 13.7757 4.6419C13.9953 5.16729 14.0609 5.74435 13.9648 6.30564V6.31831ZM5.53811 9.07498L4.19144 8.29898C4.18467 8.29492 4.17888 8.2894 4.1745 8.28283C4.17012 8.27626 4.16725 8.26879 4.16611 8.26098V4.54964C4.16723 3.98038 4.33029 3.42318 4.63626 2.94312C4.94222 2.46307 5.37846 2.07998 5.89402 1.83859C6.40958 1.5972 6.98318 1.50749 7.54782 1.57992C8.11246 1.65235 8.64484 1.88394 9.08278 2.24764L8.98811 2.30098L5.80278 4.13964C5.72371 4.18636 5.65805 4.2527 5.61215 4.33224C5.56625 4.41177 5.54167 4.50182 5.54078 4.59364L5.53811 9.07498ZM6.26944 7.49831L8.00411 6.49831L9.74211 7.49831V9.49764L8.01078 10.4976L6.27278 9.49764L6.26944 7.49831Z" fill="black"/>
</g>
<defs>
<clipPath id="clip0_5709_3350">
<rect width="16" height="16" fill="white" transform="translate(0 0.5)"/>
</clipPath>
</defs>
</svg>
