<svg xmlns="http://www.w3.org/2000/svg" width="49" height="30" fill="none" viewBox="0 0 49 30"><path fill="url(#paint0_linear_1565_2625)" d="M15.846 13.91a1.74 1.74 0 0 1 3.008 0l8.233 14.203c1.153 1.99 3.867 2.534 5.722.995 1.448-1.198 1.651-3.347.724-4.975L20.595 1.898"></path><path fill="#175CD3" d="m48.122 24.314-7.94-13.73c-1.04-1.81-3.37-2.42-5.179-1.38-1.81 1.041-2.42 3.37-1.38 5.18l7.94 13.73c1.04 1.809 3.37 2.42 5.179 1.379 1.81-1.04 2.42-3.37 1.38-5.18ZM35.116 1.899c-1.04-1.81-3.37-2.42-5.18-1.38-1.809 1.04-2.42 3.37-1.38 5.18 1.041 1.81 3.37 2.42 5.18 1.38 1.81-1.064 2.443-3.37 1.38-5.18ZM19.216.52a2.7 2.7 0 0 0-.362-.182 3.75 3.75 0 0 0-4.614 1.244l-.023.023c-.023.045-.045.068-.068.113-.023.045-.068.113-.09.158L1.166 24.11a4.01 4.01 0 0 0-.497 1.402v.091a2.764 2.764 0 0 0-.068.588c-.023 1.086.407 2.171 1.289 2.895.724.61 1.56.882 2.398.905h.135c1.29 0 2.556-.679 3.257-1.878l8.301-14.407 4.637-8.03A3.779 3.779 0 0 0 19.216.52Z"></path><defs><linearGradient id="paint0_linear_1565_2625" x1="15.845" x2="34.095" y1="15.945" y2="15.945" gradientUnits="userSpaceOnUse"><stop offset="0.144" stop-color="#194185"></stop><stop offset="0.218" stop-color="#1849A9"></stop><stop offset="0.375" stop-color="#175CD3"></stop><stop offset="0.579" stop-color="#175CD3"></stop><stop offset="1" stop-color="#175CD3"></stop></linearGradient></defs></svg>